<svg width="1em" height="0.6875em" viewBox="0 0 16 11" fill="none" xmlns="http://www.w3.org/2000/svg">
  <path
    d="M6.58594 8.94399C6.19531 8.57287 6 8.12506 6 7.60054C6 7.07602 6.19792 6.62573 6.59375 6.24966L15.0938 0.875843L9.42188 8.95142C9.03646 9.31759 8.5651 9.50067 8.00781 9.50067C7.45052 9.50067 6.97656 9.31511 6.58594 8.94399ZM8 0.920378C7.05208 0.920378 6.14323 1.09852 5.27344 1.45479C4.40365 1.81107 3.65625 2.2861 3.03125 2.87989C2.40625 3.47368 1.90885 4.18129 1.53906 5.0027C1.16927 5.82411 0.984375 6.68511 0.984375 7.58569C0.984375 8.63473 1.23438 9.63428 1.73438 10.5843L0.859375 11C0.286458 9.92128 0 8.78812 0 7.60054C0 6.5614 0.210938 5.57422 0.632812 4.639C1.05469 3.70378 1.6224 2.89721 2.33594 2.2193C3.04948 1.54139 3.90104 1.00202 4.89062 0.601215C5.88021 0.200405 6.91667 0 8 0C9.67708 0 11.2031 0.455241 12.5781 1.36572L11.6875 1.92982C10.5521 1.25686 9.32292 0.920378 8 0.920378ZM14.5781 3.26586C15.526 4.5722 16 6.01709 16 7.60054C16 8.78812 15.7135 9.92128 15.1406 11L14.2656 10.5695C14.7656 9.62933 15.0156 8.63473 15.0156 7.58569C15.0156 6.34863 14.6719 5.19073 13.9844 4.11201L14.5781 3.26586Z"
    fill="#808080" />
</svg>