<svg width="1em" height="1em" viewBox="0 0 16 16" fill="none" xmlns="http://www.w3.org/2000/svg">
  <path
    d="M14.6666 13.3338V8.11642C14.6667 7.75344 14.5926 7.39427 14.449 7.06092C14.3053 6.72756 14.0952 6.42704 13.8313 6.17776L8.91598 1.53243C8.66842 1.29838 8.34066 1.16797 7.99998 1.16797C7.6593 1.16797 7.33154 1.29838 7.08398 1.53243L2.16865 6.17776C1.9048 6.42704 1.69461 6.72756 1.55098 7.06092C1.40734 7.39427 1.33327 7.75344 1.33331 8.11642V13.3338C1.33331 13.6874 1.47379 14.0265 1.72384 14.2766C1.97389 14.5266 2.31302 14.6671 2.66665 14.6671H13.3333C13.6869 14.6671 14.0261 14.5266 14.2761 14.2766C14.5262 14.0265 14.6666 13.6874 14.6666 13.3338Z"
    stroke="currentColor" stroke-width="1.2" stroke-linecap="round" stroke-linejoin="round" />
</svg>