<svg width="1em" height="1em" viewBox="0 0 82 82" fill="" xmlns="http://www.w3.org/2000/svg">
<path d="M32.8 28.7C32.8 26.5252 33.6639 24.4395 35.2017 22.9017C36.7395 21.3639 38.8252 20.5 41 20.5C43.1748 20.5 45.2605 21.3639 46.7983 22.9017C48.3361 24.4395 49.2 26.5252 49.2 28.7C49.2 30.8748 48.3361 32.9605 46.7983 34.4983C45.2605 36.0361 43.1748 36.9 41 36.9C38.8252 36.9 36.7395 36.0361 35.2017 34.4983C33.6639 32.9605 32.8 30.8748 32.8 28.7Z" fill=""/>
<path d="M30.75 41H51.25C52.8811 41 54.4454 41.6479 55.5987 42.8013C56.7521 43.9546 57.4 45.5189 57.4 47.15C57.4 51.7256 55.5181 55.391 52.4308 57.8715C49.3927 60.311 45.3173 61.5 41 61.5C36.6827 61.5 32.6073 60.311 29.5692 57.8715C26.486 55.391 24.6 51.7256 24.6 47.15C24.6 45.5189 25.2479 43.9546 26.4013 42.8013C27.5546 41.6479 29.1189 41 30.75 41Z" fill=""/>
<path d="M41 8.2002C32.3009 8.2002 23.9581 11.6559 17.8069 17.8071C11.6557 23.9583 8.2 32.3011 8.2 41.0002C8.2 49.6993 11.6557 58.0421 17.8069 64.1933C23.9581 70.3445 32.3009 73.8002 41 73.8002C49.6991 73.8002 58.0419 70.3445 64.1931 64.1933C70.3443 58.0421 73.8 49.6993 73.8 41.0002C73.8 32.3011 70.3443 23.9583 64.1931 17.8071C58.0419 11.6559 49.6991 8.2002 41 8.2002ZM12.3 41.0002C12.3 37.2313 13.0423 33.4992 14.4847 30.0172C15.927 26.5351 18.041 23.3713 20.706 20.7062C23.3711 18.0412 26.5349 15.9272 30.017 14.4849C33.499 13.0425 37.2311 12.3002 41 12.3002C44.7689 12.3002 48.501 13.0425 51.983 14.4849C55.4651 15.9272 58.6289 18.0412 61.294 20.7062C63.959 23.3713 66.073 26.5351 67.5153 30.0172C68.9577 33.4992 69.7 37.2313 69.7 41.0002C69.7 48.6119 66.6763 55.9119 61.294 61.2942C55.9117 66.6765 48.6117 69.7002 41 69.7002C33.3883 69.7002 26.0883 66.6765 20.706 61.2942C15.3237 55.9119 12.3 48.6119 12.3 41.0002Z" fill=""/>
</svg>
