<svg width="1em" height="1em" viewBox="0 0 82 82" fill="" xmlns="http://www.w3.org/2000/svg">
<path d="M72.8889 63.7775H9.1111V48.5619C7.41471 47.7494 5.87309 46.6471 4.55554 45.3047V63.7775C4.55554 64.9857 5.0355 66.1444 5.88983 66.9987C6.74417 67.8531 7.90289 68.333 9.1111 68.333H72.8889C74.0971 68.333 75.2558 67.8531 76.1101 66.9987C76.9645 66.1444 77.4444 64.9857 77.4444 63.7775V45.3047C76.1365 46.6524 74.5924 47.7487 72.8889 48.5391V63.7775Z" fill="" fill-opacity="0.54"/>
<path d="M56.9444 51.023C57.5485 51.023 58.1279 50.7831 58.5551 50.3559C58.9822 49.9287 59.2222 49.3494 59.2222 48.7453V36.3086H54.6667V41.0008H31.8889V45.5564H54.6667V48.7453C54.6667 49.3494 54.9066 49.9287 55.3338 50.3559C55.761 50.7831 56.3403 51.023 56.9444 51.023Z" fill="" fill-opacity="0.54"/>
<path d="M75.1666 13.6672H54.6666V9.97721C54.6427 8.51922 54.0419 7.13013 52.996 6.11408C51.9501 5.09804 50.5442 4.53782 49.0861 4.5561H32.9139C31.4558 4.53782 30.0499 5.09804 29.004 6.11408C27.958 7.13013 27.3573 8.51922 27.3333 9.97721V13.6672H6.83332C6.22922 13.6672 5.64985 13.9072 5.22269 14.3344C4.79552 14.7615 4.55554 15.3409 4.55554 15.945V34.1672C4.55554 37.1877 5.75544 40.0845 7.89127 42.2204C10.0271 44.3562 12.9239 45.5561 15.9444 45.5561H22.7778V48.745C22.7778 49.3491 23.0177 49.9285 23.4449 50.3556C23.8721 50.7828 24.4514 51.0228 25.0555 51.0228C25.6596 51.0228 26.239 50.7828 26.6662 50.3556C27.0933 49.9285 27.3333 49.3491 27.3333 48.745V36.3083H22.7778V41.0005H15.9444C14.1321 41.0005 12.394 40.2806 11.1125 38.9991C9.83104 37.7176 9.1111 35.9795 9.1111 34.1672V18.2228H72.8889V34.1672C72.8889 35.9795 72.1689 37.7176 70.8874 38.9991C69.6059 40.2806 67.8679 41.0005 66.0555 41.0005H63.7778V45.5561H66.0555C69.0761 45.5561 71.9729 44.3562 74.1087 42.2204C76.2445 40.0845 77.4444 37.1877 77.4444 34.1672V15.945C77.4444 15.3409 77.2045 14.7615 76.7773 14.3344C76.3501 13.9072 75.7708 13.6672 75.1666 13.6672ZM50.1111 13.6672H31.8889V10.0911C31.9006 9.82722 32.0138 9.57807 32.2047 9.39559C32.3957 9.21311 32.6497 9.11139 32.9139 9.11165H49.1089C49.2375 9.10863 49.3655 9.13097 49.4855 9.17742C49.6055 9.22387 49.7151 9.2935 49.8082 9.38234C49.9013 9.47118 49.9759 9.57749 50.0279 9.69519C50.0799 9.8129 50.1081 9.93969 50.1111 10.0683V13.6672Z" fill="" fill-opacity="0.54"/>
</svg>
