<svg width="1em" height="1em" viewBox="0 0 16 16" fill="none" xmlns="http://www.w3.org/2000/svg">
  <path
    d="M8.00016 10.6673C9.47292 10.6673 10.6668 9.47341 10.6668 8.00065C10.6668 6.52789 9.47292 5.33398 8.00016 5.33398C6.5274 5.33398 5.3335 6.52789 5.3335 8.00065C5.3335 9.47341 6.5274 10.6673 8.00016 10.6673Z"
    fill="#F5F5F5" />
  <path
    d="M8.66683 2.71332V1.33398H7.3335V2.71332C6.16036 2.86311 5.07014 3.3981 4.23388 4.23436C3.39761 5.07063 2.86262 6.16085 2.71283 7.33398H1.3335V8.66732H2.71283C2.8624 9.84054 3.39732 10.9309 4.23363 11.7672C5.06993 12.6035 6.16028 13.1384 7.3335 13.288V14.6673H8.66683V13.288C9.84009 13.1385 10.9305 12.6036 11.7668 11.7673C12.6032 10.931 13.138 9.84058 13.2875 8.66732H14.6668V7.33398H13.2875C13.1379 6.16076 12.603 5.07042 11.7667 4.23412C10.9304 3.39781 9.84005 2.86289 8.66683 2.71332ZM8.00016 12.0007C5.79416 12.0007 4.00016 10.2067 4.00016 8.00065C4.00016 5.79465 5.79416 4.00065 8.00016 4.00065C10.2062 4.00065 12.0002 5.79465 12.0002 8.00065C12.0002 10.2067 10.2062 12.0007 8.00016 12.0007Z"
    fill="#F5F5F5" />
</svg>