<svg width="1em" height="0.778em" viewBox="0 0 18 14" fill="none" xmlns="http://www.w3.org/2000/svg">
  <path
    d="M12.0419 7.29232C12.0419 8.01061 11.7566 8.69949 11.2487 9.2074C10.7407 9.71531 10.0519 10.0007 9.33358 10.0007C8.61528 10.0007 7.92641 9.71531 7.4185 9.2074C6.91059 8.69949 6.62524 8.01061 6.62524 7.29232C6.62524 6.57402 6.91059 5.88515 7.4185 5.37724C7.92641 4.86933 8.61528 4.58398 9.33358 4.58398C10.0519 4.58398 10.7407 4.86933 11.2487 5.37724C11.7566 5.88515 12.0419 6.57402 12.0419 7.29232Z"
    fill="#808080" />
  <path
    d="M2.83341 2.41667C2.25878 2.41667 1.70768 2.64494 1.30135 3.05127C0.895021 3.4576 0.666748 4.0087 0.666748 4.58333L0.666748 11.0833C0.666748 11.658 0.895021 12.2091 1.30135 12.6154C1.70768 13.0217 2.25878 13.25 2.83341 13.25H15.8334C16.4081 13.25 16.9592 13.0217 17.3655 12.6154C17.7718 12.2091 18.0001 11.658 18.0001 11.0833V4.58333C18.0001 4.0087 17.7718 3.4576 17.3655 3.05127C16.9592 2.64494 16.4081 2.41667 15.8334 2.41667H14.5637C13.9892 2.41654 13.4381 2.18819 13.0319 1.78183L12.1349 0.884833C11.7287 0.478476 11.1777 0.250123 10.6031 0.25H8.06375C7.48916 0.250123 6.93815 0.478476 6.53192 0.884833L5.63491 1.78183C5.22868 2.18819 4.67767 2.41654 4.10308 2.41667H2.83341ZM3.37508 4.58333C3.23142 4.58333 3.09365 4.52627 2.99207 4.42468C2.89048 4.3231 2.83341 4.18533 2.83341 4.04167C2.83341 3.89801 2.89048 3.76023 2.99207 3.65865C3.09365 3.55707 3.23142 3.5 3.37508 3.5C3.51874 3.5 3.65652 3.55707 3.7581 3.65865C3.85968 3.76023 3.91675 3.89801 3.91675 4.04167C3.91675 4.18533 3.85968 4.3231 3.7581 4.42468C3.65652 4.52627 3.51874 4.58333 3.37508 4.58333ZM13.1251 7.29167C13.1251 8.29728 12.7256 9.2617 12.0145 9.97278C11.3035 10.6839 10.339 11.0833 9.33342 11.0833C8.3278 11.0833 7.36338 10.6839 6.6523 9.97278C5.94123 9.2617 5.54175 8.29728 5.54175 7.29167C5.54175 6.28605 5.94123 5.32163 6.6523 4.61055C7.36338 3.89948 8.3278 3.5 9.33342 3.5C10.339 3.5 11.3035 3.89948 12.0145 4.61055C12.7256 5.32163 13.1251 6.28605 13.1251 7.29167Z"
    fill="#808080" />
</svg>