<svg width="1em" height="1em" viewBox="0 0 20 20" fill="none" xmlns="http://www.w3.org/2000/svg">
  <path
    d="M16.875 10.4756V10.0006V9.51937L18.075 8.46937C18.2962 8.2744 18.4413 8.00751 18.4848 7.71587C18.5283 7.42423 18.4672 7.12661 18.3125 6.87562L16.8375 4.37562C16.7279 4.18578 16.5703 4.02811 16.3805 3.91841C16.1907 3.80871 15.9754 3.75085 15.7562 3.75062C15.6204 3.74958 15.4853 3.77069 15.3562 3.81312L13.8375 4.32562C13.5753 4.15138 13.3017 3.99478 13.0187 3.85687L12.7 2.28187C12.6428 1.99412 12.4863 1.73565 12.2578 1.55168C12.0292 1.36772 11.7433 1.27 11.45 1.27562H8.52497C8.23166 1.27 7.94571 1.36772 7.71719 1.55168C7.48867 1.73565 7.33213 1.99412 7.27497 2.28187L6.95622 3.85687C6.67118 3.99475 6.39558 4.15134 6.13122 4.32562L4.64372 3.78812C4.51329 3.75414 4.37821 3.74147 4.24372 3.75062C4.02452 3.75085 3.80923 3.80871 3.61945 3.91841C3.42967 4.02811 3.27208 4.18578 3.16247 4.37562L1.68747 6.87562C1.54159 7.12624 1.48738 7.41978 1.53413 7.70597C1.58088 7.99216 1.72568 8.2532 1.94372 8.44437L3.12497 9.52562V10.4819L1.94372 11.5319C1.71952 11.7244 1.57076 11.9901 1.52385 12.2818C1.47694 12.5736 1.53491 12.8725 1.68747 13.1256L3.16247 15.6256C3.27208 15.8155 3.42967 15.9731 3.61945 16.0828C3.80923 16.1925 4.02452 16.2504 4.24372 16.2506C4.37957 16.2517 4.51467 16.2306 4.64372 16.1881L6.16247 15.6756C6.42469 15.8499 6.69821 16.0065 6.98122 16.1444L7.29997 17.7194C7.35713 18.0071 7.51367 18.2656 7.74219 18.4496C7.97071 18.6335 8.25666 18.7312 8.54997 18.7256H11.5C11.7933 18.7312 12.0792 18.6335 12.3078 18.4496C12.5363 18.2656 12.6928 18.0071 12.75 17.7194L13.0687 16.1444C13.3538 16.0065 13.6294 15.8499 13.8937 15.6756L15.4062 16.1881C15.5353 16.2306 15.6704 16.2517 15.8062 16.2506C16.0254 16.2504 16.2407 16.1925 16.4305 16.0828C16.6203 15.9731 16.7779 15.8155 16.8875 15.6256L18.3125 13.1256C18.4584 12.875 18.5126 12.5815 18.4658 12.2953C18.4191 12.0091 18.2743 11.748 18.0562 11.5569L16.875 10.4756ZM15.7562 15.0006L13.6125 14.2756C13.1106 14.7007 12.5371 15.033 11.9187 15.2569L11.475 17.5006H8.52497L8.08122 15.2819C7.46774 15.0516 6.8973 14.7199 6.39372 14.3006L4.24372 15.0006L2.76872 12.5006L4.46872 11.0006C4.35316 10.3537 4.35316 9.69133 4.46872 9.04437L2.76872 7.50062L4.24372 5.00062L6.38747 5.72562C6.88931 5.30055 7.46285 4.96828 8.08122 4.74437L8.52497 2.50062H11.475L11.9187 4.71937C12.5322 4.94963 13.1026 5.28133 13.6062 5.70062L15.7562 5.00062L17.2312 7.50062L15.5312 9.00062C15.6468 9.64758 15.6468 10.3099 15.5312 10.9569L17.2312 12.5006L15.7562 15.0006Z"
    fill="currentColor" />
  <path
    d="M10 13.75C9.25832 13.75 8.5333 13.5301 7.91661 13.118C7.29993 12.706 6.81928 12.1203 6.53545 11.4351C6.25162 10.7498 6.17736 9.99584 6.32206 9.26841C6.46675 8.54098 6.8239 7.8728 7.34835 7.34835C7.8728 6.8239 8.54098 6.46675 9.26841 6.32206C9.99584 6.17736 10.7498 6.25162 11.4351 6.53545C12.1203 6.81928 12.706 7.29993 13.118 7.91661C13.5301 8.5333 13.75 9.25832 13.75 10C13.755 10.4939 13.6614 10.9837 13.4748 11.441C13.2881 11.8982 13.012 12.3136 12.6628 12.6628C12.3136 13.012 11.8982 13.2881 11.441 13.4748C10.9837 13.6614 10.4939 13.755 10 13.75ZM10 7.5C9.66959 7.4923 9.34105 7.55171 9.03426 7.67462C8.72747 7.79753 8.44879 7.9814 8.2151 8.2151C7.9814 8.44879 7.79753 8.72747 7.67462 9.03426C7.55171 9.34105 7.4923 9.66959 7.5 10C7.4923 10.3304 7.55171 10.6589 7.67462 10.9657C7.79753 11.2725 7.9814 11.5512 8.2151 11.7849C8.44879 12.0186 8.72747 12.2025 9.03426 12.3254C9.34105 12.4483 9.66959 12.5077 10 12.5C10.3304 12.5077 10.6589 12.4483 10.9657 12.3254C11.2725 12.2025 11.5512 12.0186 11.7849 11.7849C12.0186 11.5512 12.2025 11.2725 12.3254 10.9657C12.4483 10.6589 12.5077 10.3304 12.5 10C12.5077 9.66959 12.4483 9.34105 12.3254 9.03426C12.2025 8.72747 12.0186 8.44879 11.7849 8.2151C11.5512 7.9814 11.2725 7.79753 10.9657 7.67462C10.6589 7.55171 10.3304 7.4923 10 7.5Z"
    fill="currentColor" />
</svg>