<svg width="1em" height="1em" viewBox="0 0 32 32" fill="none" xmlns="http://www.w3.org/2000/svg">
  <path
    d="M30 24V22H27.899C27.77 21.374 27.5215 20.7788 27.167 20.247L28.657 18.757L27.243 17.343L25.753 18.833C25.2212 18.4785 24.626 18.23 24 18.101V16H22V18.101C21.374 18.23 20.7788 18.4785 20.247 18.833L18.757 17.343L17.343 18.757L18.833 20.247C18.4785 20.7788 18.23 21.374 18.101 22H16V24H18.101C18.23 24.626 18.4785 25.2212 18.833 25.753L17.343 27.243L18.757 28.657L20.247 27.167C20.7788 27.5215 21.374 27.77 22 27.899V30H24V27.899C24.626 27.77 25.2212 27.5215 25.753 27.167L27.243 28.657L28.657 27.243L27.167 25.753C27.5215 25.2212 27.77 24.626 27.899 24H30ZM23 26C22.4067 26 21.8266 25.8241 21.3333 25.4944C20.8399 25.1648 20.4554 24.6962 20.2284 24.1481C20.0013 23.5999 19.9419 22.9967 20.0576 22.4147C20.1734 21.8328 20.4591 21.2982 20.8787 20.8787C21.2982 20.4591 21.8328 20.1734 22.4147 20.0576C22.9967 19.9419 23.5999 20.0013 24.1481 20.2284C24.6962 20.4554 25.1648 20.8399 25.4944 21.3333C25.8241 21.8266 26 22.4067 26 23C25.9992 23.7954 25.6829 24.558 25.1204 25.1204C24.558 25.6829 23.7954 25.9992 23 26Z"
    fill="#808080" />
  <path
    d="M25 5H22V4C21.9984 3.47005 21.7872 2.96227 21.4125 2.58753C21.0377 2.2128 20.5299 2.00158 20 2H12C11.4701 2.00158 10.9623 2.2128 10.5875 2.58753C10.2128 2.96227 10.0016 3.47005 10 4V5H7C6.47005 5.00158 5.96227 5.2128 5.58753 5.58753C5.2128 5.96227 5.00158 6.47005 5 7V28C5.00158 28.5299 5.2128 29.0377 5.58753 29.4125C5.96227 29.7872 6.47005 29.9984 7 30H14V28H7V7H10V10H22V7H25V13H27V7C26.9984 6.47005 26.7872 5.96227 26.4125 5.58753C26.0377 5.2128 25.5299 5.00158 25 5ZM20 8H12V4H20V8Z"
    fill="#808080" />
</svg>