<svg width="1em" height="1em" viewBox="0 0 32 32" fill="none" xmlns="http://www.w3.org/2000/svg">
  <path
    d="M29 2H3L2 3V29L3 30H29L30 29V3L29 2ZM28 28H10V24H14.6C15.2 25.2 16.6 26 18 26C20.2 26 22 24.2 22 22C22 19.8 20.2 18 18 18C15.8 18 14 19.8 14 22H8V28H4V4H8V8.6C6.8 9.2 6 10.6 6 12C6 14.2 7.8 16 10 16C12.2 16 14 14.2 14 12H18C18 14.2 19.8 16 22 16C24.2 16 26 14.2 26 12C26 9.8 24.2 8 22 8C20.6 8 19.2 8.8 18.6 10H13.4C12.8 8.8 11.4 8 10 8V4H28V28ZM16 22C16 20.8 16.8 20 18 20C19.2 20 20 20.8 20 22C20 23.2 19.2 24 18 24C16.8 24 16 23.2 16 22ZM10 10C11.2 10 12 10.8 12 12C12 13.2 11.2 14 10 14C8.8 14 8 13.2 8 12C8 10.8 8.8 10 10 10ZM22 10C23.2 10 24 10.8 24 12C24 13.2 23.2 14 22 14C20.8 14 20 13.2 20 12C20 10.8 20.8 10 22 10Z"
    fill="#808080" />
</svg>