<svg width="1em" height="1em" viewBox="0 0 18 18" fill="none" xmlns="http://www.w3.org/2000/svg">
  <path fill-rule="evenodd" clip-rule="evenodd"
    d="M16.6197 3.92052L15.7422 3.71352L13.3707 6.07151L12.0274 4.70352L14.3404 2.27689L14.1379 1.38589C13.6491 1.22237 13.1379 1.13584 12.6225 1.12939C12.0603 1.12075 11.5024 1.22797 10.9834 1.44439C10.4823 1.6712 10.0294 1.99199 9.64916 2.38939C9.22587 2.79035 8.89065 3.275 8.66478 3.81252C8.22992 4.88226 8.22992 6.07952 8.66478 7.14926C6.31942 9.45663 4.00435 11.7946 1.72016 14.1625C1.48391 14.4719 1.37141 14.8578 1.40066 15.2459C1.42371 15.6633 1.61144 16.0546 1.92266 16.3338C2.06216 16.4856 2.22866 16.6116 2.41428 16.7028C2.60553 16.7871 2.81141 16.8355 3.01953 16.8456C3.37503 16.8389 3.71591 16.7039 3.98028 16.4665C5.72178 14.8274 9.05853 11.4603 10.9542 9.48701C11.4683 9.70526 12.0207 9.81776 12.5787 9.81664C13.1403 9.8162 13.6963 9.70317 14.2135 9.48425C14.7308 9.26532 15.1989 8.94493 15.5903 8.54201C16.3942 7.72218 16.8431 6.61895 16.8402 5.47077C16.8532 4.94536 16.7786 4.42146 16.6197 3.92052ZM3.29966 15.6689C3.25635 15.7073 3.20416 15.7344 3.14778 15.7476C3.09232 15.7572 3.03562 15.7572 2.98016 15.7476C2.922 15.7388 2.86662 15.7169 2.81816 15.6835C2.76615 15.6531 2.72218 15.6106 2.68991 15.5598C2.53241 15.3989 2.38503 15.0929 2.53241 14.9208C4.07366 13.2816 7.24728 10.0776 9.23178 8.11901C9.34428 8.26751 9.46803 8.40926 9.60078 8.54201C9.73353 8.68039 9.87641 8.80864 10.0283 8.92564C8.10903 10.8944 4.97928 14.0601 3.30078 15.6689H3.29966ZM15.8074 5.47077C15.8097 6.33139 15.4744 7.15826 14.8714 7.77476C14.2697 8.36504 13.4604 8.69571 12.6175 8.69571C11.7745 8.69571 10.9653 8.36504 10.3635 7.77476C9.92251 7.31452 9.62125 6.73851 9.49478 6.11375C9.36832 5.48899 9.42185 4.84117 9.64916 4.24564C9.80046 3.84034 10.0351 3.47131 10.338 3.16241C10.6409 2.85351 11.0053 2.61163 11.4075 2.45239C11.7895 2.29254 12.1995 2.21068 12.6135 2.21164H12.8993L10.8552 4.31877V5.10176L12.987 7.22352H13.7295L15.8074 5.18051V5.47077ZM3.64503 7.52389H5.36741L6.16053 8.33051L6.92328 7.57226L6.17516 6.80951V6.76114L6.23928 4.90602L5.99178 4.41439L2.77428 2.29714L2.10941 2.37139L1.17453 3.32652L1.10028 4.00039L3.16803 7.28314L3.64503 7.52501V7.52389ZM2.58191 3.43789L5.18516 5.15239L5.14128 6.41576H3.93078L2.25228 3.75852L2.58191 3.43789ZM10.575 11.2679L11.3333 10.5108L14.8275 14.0939C15.1219 14.4032 15.286 14.8139 15.286 15.2408C15.286 15.6678 15.1219 16.0784 14.8275 16.3878C14.6062 16.615 14.3216 16.7703 14.0108 16.8335C13.7 16.8967 13.3774 16.8649 13.0849 16.7421C12.8983 16.6593 12.7308 16.5387 12.5933 16.3878L9.05853 12.7844L9.82241 12.0216L13.3459 15.6149C13.3933 15.6671 13.4522 15.7076 13.518 15.733C13.6475 15.7856 13.7924 15.7856 13.9219 15.733C13.9877 15.7076 14.0466 15.6671 14.094 15.6149C14.1433 15.5661 14.1816 15.5074 14.2065 15.4428C14.2323 15.3768 14.2461 15.3066 14.247 15.2358C14.2459 15.165 14.2326 15.095 14.2077 15.0288C14.1827 14.9641 14.1444 14.9054 14.0952 14.8566L10.575 11.2679Z"
    fill="currentColor" />
</svg>