<svg width="1em" height="1em" viewBox="0 0 18 18" fill="none" xmlns="http://www.w3.org/2000/svg">
  <path
    d="M13.5 1.82812H4.5C4.08989 1.82859 3.6967 1.99171 3.40671 2.28171C3.11671 2.5717 2.95359 2.96489 2.95312 3.375V14.625C2.95359 15.0351 3.11671 15.4283 3.40671 15.7183C3.6967 16.0083 4.08989 16.1714 4.5 16.1719H13.5C13.9101 16.1714 14.3033 16.0083 14.5933 15.7183C14.8833 15.4283 15.0464 15.0351 15.0469 14.625V3.375C15.0464 2.96489 14.8833 2.5717 14.5933 2.28171C14.3033 1.99171 13.9101 1.82859 13.5 1.82812ZM14.2031 14.625C14.2029 14.8114 14.1288 14.9901 13.9969 15.1219C13.8651 15.2538 13.6864 15.3279 13.5 15.3281H4.5C4.31359 15.3279 4.13488 15.2538 4.00306 15.1219C3.87125 14.9901 3.7971 14.8114 3.79688 14.625V3.375C3.7971 3.18859 3.87125 3.00988 4.00306 2.87806C4.13488 2.74625 4.31359 2.6721 4.5 2.67188H13.5C13.6864 2.6721 13.8651 2.74625 13.9969 2.87806C14.1288 3.00988 14.2029 3.18859 14.2031 3.375V14.625ZM11.6719 4.5C11.6719 4.61189 11.6274 4.71919 11.5483 4.79831C11.4692 4.87743 11.3619 4.92188 11.25 4.92188H6.75C6.63811 4.92188 6.53081 4.87743 6.45169 4.79831C6.37257 4.71919 6.32812 4.61189 6.32812 4.5C6.32812 4.38811 6.37257 4.28081 6.45169 4.20169C6.53081 4.12257 6.63811 4.07812 6.75 4.07812H11.25C11.3619 4.07812 11.4692 4.12257 11.5483 4.20169C11.6274 4.28081 11.6719 4.38811 11.6719 4.5Z"
    fill="currentColor" />
</svg>