<svg width="1em" height="1em" viewBox="0 0 18 18" fill="none" xmlns="http://www.w3.org/2000/svg">
  <path
    d="M15.75 14.0625V9.5625C15.75 5.83481 12.7277 2.8125 9 2.8125C5.27231 2.8125 2.25 5.83481 2.25 9.5625V14.0625C2.08428 15.6661 0.03603 15.2467 0 14.0625V9.5625C0 4.59168 4.02975 0.5625 9 0.5625C13.9703 0.5625 18 4.59168 18 9.5625V14.0625C17.8343 15.6661 15.786 15.2467 15.75 14.0625ZM3.9375 10.6875H5.0625C5.373 10.6875 5.625 10.9389 5.625 11.25V16.875C5.625 17.1861 5.373 17.4375 5.0625 17.4375H3.9375C3.627 17.4375 3.375 17.1861 3.375 16.875V11.25C3.375 10.9389 3.627 10.6875 3.9375 10.6875ZM12.9375 10.6875H14.0625C14.3736 10.6875 14.625 10.9389 14.625 11.25V16.875C14.625 17.1861 14.3736 17.4375 14.0625 17.4375H12.9375C12.6264 17.4375 12.375 17.1861 12.375 16.875V11.25C12.375 10.9389 12.6264 10.6875 12.9375 10.6875Z"
    fill="#808080" />
</svg>