<svg width="57" height="53" viewBox="0 0 57 53" fill="" xmlns="http://www.w3.org/2000/svg">
<path d="M41.3166 0.357422C38.5034 0.357422 35.8054 1.47496 33.8162 3.46418C31.827 5.45341 30.7094 8.15138 30.7094 10.9646V16.8574L26.8909 21.2794C26.3817 21.8687 26.1248 22.1657 26.0541 22.4014C25.9683 22.6781 25.9875 22.9768 26.1079 23.2402C26.2284 23.5037 26.4416 23.7136 26.707 23.8299C26.9333 23.9289 27.3246 23.9289 28.1048 23.9289H54.5284C55.3086 23.9289 55.6999 23.9289 55.9261 23.8299C56.1915 23.7136 56.4048 23.5037 56.5252 23.2402C56.6457 22.9768 56.6648 22.6781 56.5791 22.4014C56.5084 22.1657 56.2514 21.8711 55.7399 21.2794L51.9237 16.8574V10.9646C51.9237 8.15138 50.8062 5.45341 48.817 3.46418C46.8277 1.47496 44.1298 0.357422 41.3166 0.357422ZM41.3166 31.0003C42.5669 31.0003 43.766 30.5036 44.6501 29.6195C45.5342 28.7354 46.0309 27.5363 46.0309 26.286H36.6023C36.6023 27.5363 37.099 28.7354 37.9831 29.6195C38.8672 30.5036 40.0663 31.0003 41.3166 31.0003ZM25.9999 31.3656L34.297 27.0521C34.429 28.2825 34.8769 29.4186 35.5581 30.378L26.8154 34.9273C26.6063 35.0355 26.3776 35.1008 26.1428 35.1195C25.908 35.1381 25.6719 35.1096 25.4483 35.0357L25.1843 34.9249L3.607 23.7049V44.5539C3.60704 45.5891 3.99633 46.5865 4.69761 47.348C5.39888 48.1095 6.36085 48.5795 7.39257 48.6647L7.732 48.6789H44.2677C45.3033 48.6788 46.301 48.2891 47.0626 47.5874C47.8242 46.8856 48.2939 45.9231 48.3786 44.8909L48.3927 44.5539V26.5618C48.3974 26.4699 48.3974 26.3779 48.3974 26.286H51.9284V44.5539C51.9286 46.5106 51.1799 48.3932 49.8361 49.8155C48.4922 51.2378 46.655 52.092 44.7014 52.2028L44.2677 52.2146H7.732C5.77525 52.2147 3.89262 51.466 2.47032 50.1222C1.04801 48.7783 0.193857 46.9412 0.0830751 44.9876L0.0712891 44.5539V17.4467C0.071161 15.49 0.819809 13.6073 2.16366 12.185C3.50751 10.7627 5.34467 9.90856 7.29829 9.79778L7.732 9.78599H28.4159C28.3801 10.1778 28.362 10.5711 28.3617 10.9646V13.3217H7.732C6.69677 13.3217 5.6994 13.711 4.93787 14.4123C4.17634 15.1136 3.70633 16.0756 3.62115 17.1073L3.607 17.4467V19.719L25.9999 31.3633V31.3656Z" fill=""/>
</svg>
