<svg width="1em" height="1em" viewBox="0 0 32 32" fill="none" xmlns="http://www.w3.org/2000/svg">
  <path
    d="M16 11.1992C14.7269 11.1992 13.506 11.7049 12.6058 12.6051C11.7057 13.5053 11.2 14.7262 11.2 15.9992C11.2 17.2723 11.7057 18.4932 12.6058 19.3933C13.506 20.2935 14.7269 20.7992 16 20.7992C17.273 20.7992 18.4939 20.2935 19.3941 19.3933C20.2942 18.4932 20.7999 17.2723 20.7999 15.9992C20.7999 14.7262 20.2942 13.5053 19.3941 12.6051C18.4939 11.7049 17.273 11.1992 16 11.1992ZM12.8 15.9992C12.8 15.1505 13.1371 14.3366 13.7372 13.7365C14.3373 13.1364 15.1513 12.7992 16 12.7992C16.8486 12.7992 17.6626 13.1364 18.2627 13.7365C18.8628 14.3366 19.2 15.1505 19.2 15.9992C19.2 16.8479 18.8628 17.6618 18.2627 18.262C17.6626 18.8621 16.8486 19.1992 16 19.1992C15.1513 19.1992 14.3373 18.8621 13.7372 18.262C13.1371 17.6618 12.8 16.8479 12.8 15.9992ZM12 3.19922C12.2121 3.19922 12.4156 3.2835 12.5656 3.43353C12.7157 3.58356 12.8 3.78705 12.8 3.99922V6.39922H15.2V3.99922C15.2 3.78705 15.2842 3.58356 15.4343 3.43353C15.5843 3.2835 15.7878 3.19922 16 3.19922C16.2121 3.19922 16.4156 3.2835 16.5656 3.43353C16.7157 3.58356 16.8 3.78705 16.8 3.99922V6.39922H19.2V3.99922C19.2 3.78705 19.2842 3.58356 19.4343 3.43353C19.5843 3.2835 19.7878 3.19922 20 3.19922C20.2121 3.19922 20.4156 3.2835 20.5656 3.43353C20.7157 3.58356 20.7999 3.78705 20.7999 3.99922V6.39922H21.6C22.6608 6.39922 23.6782 6.82065 24.4284 7.57079C25.1785 8.32094 25.5999 9.33835 25.5999 10.3992V11.1992H28C28.2121 11.1992 28.4156 11.2835 28.5656 11.4335C28.7157 11.5836 28.7999 11.787 28.7999 11.9992C28.7999 12.2114 28.7157 12.4149 28.5656 12.5649C28.4156 12.7149 28.2121 12.7992 28 12.7992H25.5999V15.1992H28C28.2121 15.1992 28.4156 15.2835 28.5656 15.4335C28.7157 15.5836 28.7999 15.787 28.7999 15.9992C28.7999 16.2114 28.7157 16.4149 28.5656 16.5649C28.4156 16.7149 28.2121 16.7992 28 16.7992H25.5999V19.1992H28C28.2121 19.1992 28.4156 19.2835 28.5656 19.4335C28.7157 19.5836 28.7999 19.787 28.7999 19.9992C28.7999 20.2114 28.7157 20.4149 28.5656 20.5649C28.4156 20.7149 28.2121 20.7992 28 20.7992H25.5999V21.5992C25.5999 22.6601 25.1785 23.6775 24.4284 24.4276C23.6782 25.1778 22.6608 25.5992 21.6 25.5992H20.7999V27.9992C20.7999 28.2114 20.7157 28.4149 20.5656 28.5649C20.4156 28.7149 20.2121 28.7992 20 28.7992C19.7878 28.7992 19.5843 28.7149 19.4343 28.5649C19.2842 28.4149 19.2 28.2114 19.2 27.9992V25.5992H16.8V27.9992C16.8 28.2114 16.7157 28.4149 16.5656 28.5649C16.4156 28.7149 16.2121 28.7992 16 28.7992C15.7878 28.7992 15.5843 28.7149 15.4343 28.5649C15.2842 28.4149 15.2 28.2114 15.2 27.9992V25.5992H12.8V27.9992C12.8 28.2114 12.7157 28.4149 12.5656 28.5649C12.4156 28.7149 12.2121 28.7992 12 28.7992C11.7878 28.7992 11.5843 28.7149 11.4343 28.5649C11.2842 28.4149 11.2 28.2114 11.2 27.9992V25.5992H10.4C9.33908 25.5992 8.32167 25.1778 7.57152 24.4276C6.82138 23.6775 6.39995 22.6601 6.39995 21.5992V20.7992H3.99995C3.78778 20.7992 3.58429 20.7149 3.43427 20.5649C3.28424 20.4149 3.19995 20.2114 3.19995 19.9992C3.19995 19.787 3.28424 19.5836 3.43427 19.4335C3.58429 19.2835 3.78778 19.1992 3.99995 19.1992H6.39995V16.7992H3.99995C3.78778 16.7992 3.58429 16.7149 3.43427 16.5649C3.28424 16.4149 3.19995 16.2114 3.19995 15.9992C3.19995 15.787 3.28424 15.5836 3.43427 15.4335C3.58429 15.2835 3.78778 15.1992 3.99995 15.1992H6.39995V12.7992H3.99995C3.78778 12.7992 3.58429 12.7149 3.43427 12.5649C3.28424 12.4149 3.19995 12.2114 3.19995 11.9992C3.19995 11.787 3.28424 11.5836 3.43427 11.4335C3.58429 11.2835 3.78778 11.1992 3.99995 11.1992H6.39995V10.3992C6.39995 9.33835 6.82138 8.32094 7.57152 7.57079C8.32167 6.82065 9.33908 6.39922 10.4 6.39922H11.2V3.99922C11.2 3.78705 11.2842 3.58356 11.4343 3.43353C11.5843 3.2835 11.7878 3.19922 12 3.19922ZM24 10.3992C24 9.7627 23.7471 9.15225 23.297 8.70216C22.8469 8.25207 22.2365 7.99922 21.6 7.99922H10.4C9.76343 7.99922 9.15298 8.25207 8.70289 8.70216C8.25281 9.15225 7.99995 9.7627 7.99995 10.3992V21.5992C7.99995 22.2357 8.25281 22.8462 8.70289 23.2963C9.15298 23.7464 9.76343 23.9992 10.4 23.9992H21.6C22.2365 23.9992 22.8469 23.7464 23.297 23.2963C23.7471 22.8462 24 22.2357 24 21.5992V10.3992Z"
    fill="#808080" />
</svg>