<svg width="1em" height="1em" viewBox="0 0 70 70" fill="none" xmlns="http://www.w3.org/2000/svg">
  <path
    d="M10.5 15.75C10.5 14.3576 11.0531 13.0223 12.0377 12.0377C13.0223 11.0531 14.3576 10.5 15.75 10.5H54.25C55.6424 10.5 56.9777 11.0531 57.9623 12.0377C58.9469 13.0223 59.5 14.3576 59.5 15.75V40.25C59.5 41.6424 58.9469 42.9777 57.9623 43.9623C56.9777 44.9469 55.6424 45.5 54.25 45.5H35V42H54.25C54.7141 42 55.1592 41.8156 55.4874 41.4874C55.8156 41.1593 56 40.7141 56 40.25V15.75C56 15.2859 55.8156 14.8408 55.4874 14.5126C55.1592 14.1844 54.7141 14 54.25 14H15.75C15.2859 14 14.8408 14.1844 14.5126 14.5126C14.1844 14.8408 14 15.2859 14 15.75V21H10.5V15.75Z"
    fill="#C4C4C4" />
  <path
    d="M35 52.5H61.25C61.7141 52.5 62.1593 52.3156 62.4874 51.9874C62.8156 51.6592 63 51.2141 63 50.75C63 50.2859 62.8156 49.8408 62.4874 49.5126C62.1593 49.1844 61.7141 49 61.25 49H35V52.5Z"
    fill="#C4C4C4" />
  <path
    d="M17.5 52.5C17.0359 52.5 16.5908 52.6844 16.2626 53.0126C15.9344 53.3408 15.75 53.7859 15.75 54.25C15.75 54.7141 15.9344 55.1592 16.2626 55.4874C16.5908 55.8156 17.0359 56 17.5 56H21C21.4641 56 21.9092 55.8156 22.2374 55.4874C22.5656 55.1592 22.75 54.7141 22.75 54.25C22.75 53.7859 22.5656 53.3408 22.2374 53.0126C21.9092 52.6844 21.4641 52.5 21 52.5H17.5Z"
    fill="#C4C4C4" />
  <path
    d="M7 29.75C7 28.3576 7.55312 27.0223 8.53769 26.0377C9.52226 25.0531 10.8576 24.5 12.25 24.5H26.25C27.6424 24.5 28.9777 25.0531 29.9623 26.0377C30.9469 27.0223 31.5 28.3576 31.5 29.75V57.75C31.5 59.1424 30.9469 60.4777 29.9623 61.4623C28.9777 62.4469 27.6424 63 26.25 63H12.25C10.8576 63 9.52226 62.4469 8.53769 61.4623C7.55312 60.4777 7 59.1424 7 57.75V29.75ZM12.25 28C11.7859 28 11.3408 28.1844 11.0126 28.5126C10.6844 28.8408 10.5 29.2859 10.5 29.75V57.75C10.5 58.2141 10.6844 58.6592 11.0126 58.9874C11.3408 59.3156 11.7859 59.5 12.25 59.5H26.25C26.7141 59.5 27.1592 59.3156 27.4874 58.9874C27.8156 58.6592 28 58.2141 28 57.75V29.75C28 29.2859 27.8156 28.8408 27.4874 28.5126C27.1592 28.1844 26.7141 28 26.25 28H12.25Z"
    fill="#C4C4C4" />
</svg>