<svg width="1em" height="1em" viewBox="0 0 62 62" fill="none" xmlns="http://www.w3.org/2000/svg">
  <path fill-rule="evenodd" clip-rule="evenodd"
    d="M42.1968 56.833L19.8019 56.833C11.0092 56.833 5.16731 50.5573 5.16731 41.55L5.16731 20.4493C5.16731 11.4515 11.0266 5.16634 19.8019 5.16634L42.1968 5.16634C50.9899 5.16634 56.834 11.4426 56.834 20.4493L56.834 41.55C56.834 50.5568 50.9899 56.833 42.1968 56.833ZM19.8019 52.958L42.1968 52.958C48.7856 52.958 52.959 48.476 52.959 41.55L52.959 20.4493C52.959 13.5233 48.7856 9.04134 42.1968 9.04134L19.8019 9.04134C13.2298 9.04134 9.04231 13.5332 9.04231 20.4493L9.04231 41.55C9.04231 48.4768 13.2138 52.958 19.8019 52.958ZM31.0006 43.4927C30.0198 43.4927 29.2091 42.7638 29.0808 41.8181L29.0631 41.5552V25.1376L22.6912 31.5342C22.0049 32.2235 20.9286 32.2883 20.1689 31.7271L19.9512 31.54C19.2619 30.8536 19.1971 29.7774 19.7582 29.0177L19.9454 28.8L29.6277 19.0763C30.3162 18.3849 31.3963 18.322 32.156 18.8877L32.1641 18.8947C32.236 18.9488 32.3041 19.0078 32.3678 19.0712L32.3736 19.0763L42.0559 28.8C42.8109 29.5582 42.8083 30.785 42.0501 31.54C41.3608 32.2264 40.2843 32.2866 39.527 31.7222L39.31 31.5342L32.9381 25.134V41.5552C32.9381 42.6252 32.0707 43.4927 31.0006 43.4927Z"
    fill="currentColor" />
</svg>