<svg width="1em" height="0.999em" viewBox="0 0 17 16" fill="none" xmlns="http://www.w3.org/2000/svg">
  <path fill-rule="evenodd" clip-rule="evenodd"
    d="M8.35116 8.97698C7.90516 8.97698 7.46049 8.82965 7.08849 8.53498L4.09849 6.12432C3.88316 5.95098 3.84982 5.63565 4.02249 5.42098C4.19649 5.20698 4.51116 5.17298 4.72582 5.34565L7.71316 7.75365C8.08849 8.05098 8.61716 8.05098 8.99516 7.75098L11.9525 5.34698C12.1672 5.17165 12.4818 5.20498 12.6565 5.41965C12.8305 5.63365 12.7978 5.94832 12.5838 6.12298L9.62116 8.53098C9.24649 8.82832 8.79849 8.97698 8.35116 8.97698Z"
    fill="currentColor" />
  <mask id="mask0_958_2683" style="mask-type:alpha" maskUnits="userSpaceOnUse" x="1" y="1" width="15" height="14">
    <path fill-rule="evenodd" clip-rule="evenodd" d="M1.1665 1.33398H15.4998V14.334H1.1665V1.33398Z" fill="white" />
  </mask>
  <g mask="url(#mask0_958_2683)">
    <path fill-rule="evenodd" clip-rule="evenodd"
      d="M5.05917 13.334H11.6058C11.6072 13.3327 11.6125 13.334 11.6165 13.334C12.3772 13.334 13.0518 13.062 13.5692 12.5453C14.1698 11.9473 14.4998 11.088 14.4998 10.126V5.54732C14.4998 3.68532 13.2825 2.33398 11.6058 2.33398H5.0605C3.38384 2.33398 2.1665 3.68532 2.1665 5.54732V10.126C2.1665 11.088 2.49717 11.9473 3.09717 12.5453C3.6145 13.062 4.28984 13.334 5.04984 13.334H5.05917ZM5.04784 14.334C4.01917 14.334 3.1005 13.9607 2.39117 13.254C1.60117 12.466 1.1665 11.3553 1.1665 10.126V5.54732C1.1665 3.14532 2.8405 1.33398 5.0605 1.33398H11.6058C13.8258 1.33398 15.4998 3.14532 15.4998 5.54732V10.126C15.4998 11.3553 15.0652 12.466 14.2752 13.254C13.5665 13.96 12.6472 14.334 11.6165 14.334H11.6058H5.0605H5.04784Z"
      fill="currentColor" />
  </g>
</svg>