<svg width="1em" height="1em" viewBox="0 0 62 62" fill="none" xmlns="http://www.w3.org/2000/svg">
  <path fill-rule="evenodd" clip-rule="evenodd"
    d="M32.5897 5.42563L49.7496 11.2819C51.669 11.9381 52.9583 13.705 52.9583 15.6838V32.8393C52.9583 38.0394 51.0257 43.0742 47.5193 47.0033C45.9136 48.8039 43.8533 50.3513 41.2215 51.7359L31.9464 56.6054C31.6566 56.7552 31.3376 56.8327 31.0159 56.8327C30.6969 56.8327 30.3779 56.7552 30.0882 56.6054L20.7944 51.7333C18.1573 50.3461 16.0944 48.7987 14.4914 47.0059C10.9796 43.0716 9.04166 38.0342 9.04166 32.8289C9.04166 31.7801 9.91893 30.9277 10.9982 30.9277C12.0775 30.9277 12.9548 31.7801 12.9548 32.8289C12.9548 37.1223 14.5498 41.2711 17.4448 44.5157C18.7342 45.9597 20.4382 47.2255 22.6526 48.388L31.0159 52.7718L39.3606 48.3906C41.5698 47.2307 43.2738 45.9649 44.5658 44.5157C47.4555 41.2737 49.0478 37.1301 49.0478 32.8393V15.6838C49.0478 15.317 48.8086 14.9915 48.455 14.8701L31.2951 9.01379C31.1063 8.94921 30.8963 8.94921 30.7049 9.01379L13.5476 14.8701C13.1941 14.9915 12.9548 15.317 12.9548 15.6838V20.592C12.9548 21.6434 12.0775 22.4959 10.9982 22.4959C9.91893 22.4959 9.04166 21.6434 9.04166 20.592V15.6838C9.04166 13.705 10.3336 11.9381 12.253 11.2819L29.4103 5.42563C30.4364 5.07948 31.5662 5.07948 32.5897 5.42563ZM29.1561 36.9862C28.6351 36.9862 28.1406 36.7847 27.7738 36.4282L22.8398 31.6337C22.0768 30.8897 22.0768 29.6911 22.8398 28.9471C23.6054 28.2031 24.8416 28.2031 25.6045 28.9471L29.1561 32.3957L37.9341 23.8684C38.6971 23.127 39.9359 23.127 40.6989 23.8684C41.4618 24.6098 41.4618 25.8136 40.6989 26.555L30.5385 36.4282C30.1716 36.7847 29.6745 36.9862 29.1561 36.9862Z"
    fill="#C4C4C4" />
</svg>