<svg width="1em" height="1em" viewBox="0 0 18 18" fill="none" xmlns="http://www.w3.org/2000/svg">
  <path fill-rule="evenodd" clip-rule="evenodd"
    d="M8.48948 16.5H4.82498C2.99198 16.5 1.50023 15.0082 1.50023 13.1737V4.827C1.50023 2.9925 2.99198 1.5 4.82498 1.5H8.48123C10.3157 1.5 11.8082 2.9925 11.8082 4.827V5.526C11.8082 5.8365 11.5562 6.0885 11.2457 6.0885C10.9352 6.0885 10.6832 5.8365 10.6832 5.526V4.827C10.6832 3.612 9.69547 2.625 8.48123 2.625H4.82498C3.61223 2.625 2.62523 3.612 2.62523 4.827V13.1737C2.62523 14.388 3.61223 15.375 4.82498 15.375H8.48948C9.69847 15.375 10.6832 14.391 10.6832 13.182V12.4748C10.6832 12.1643 10.9352 11.9123 11.2457 11.9123C11.5562 11.9123 11.8082 12.1643 11.8082 12.4748V13.182C11.8082 15.012 10.3187 16.5 8.48948 16.5Z"
    fill="#343434" />
  <mask id="mask0_945_2616" style="mask-type:alpha" maskUnits="userSpaceOnUse" x="6" y="8" width="11" height="2">
    <path fill-rule="evenodd" clip-rule="evenodd" d="M6.74707 8.4375H16.9027V9.5625H6.74707V8.4375Z" fill="white" />
  </mask>
  <g mask="url(#mask0_945_2616)">
    <path fill-rule="evenodd" clip-rule="evenodd"
      d="M16.3403 9.5625H7.30957C6.99907 9.5625 6.74707 9.3105 6.74707 9C6.74707 8.6895 6.99907 8.4375 7.30957 8.4375H16.3403C16.6508 8.4375 16.9028 8.6895 16.9028 9C16.9028 9.3105 16.6508 9.5625 16.3403 9.5625Z"
      fill="#343434" />
  </g>
  <mask id="mask1_945_2616" style="mask-type:alpha" maskUnits="userSpaceOnUse" x="13" y="6" width="4" height="6">
    <path fill-rule="evenodd" clip-rule="evenodd" d="M13.5822 6.25195H16.9028V11.75H13.5822V6.25195Z" fill="white" />
  </mask>
  <g mask="url(#mask1_945_2616)">
    <path fill-rule="evenodd" clip-rule="evenodd"
      d="M14.1446 11.75C14.0006 11.75 13.8558 11.6953 13.7463 11.5843C13.5273 11.3638 13.5281 11.0083 13.7478 10.7893L15.5433 9.00052L13.7478 7.21252C13.5281 6.99352 13.5266 6.63802 13.7463 6.41752C13.9653 6.19702 14.3208 6.19702 14.5413 6.41602L16.7373 8.60227C16.8438 8.70727 16.9031 8.85127 16.9031 9.00052C16.9031 9.14977 16.8438 9.29377 16.7373 9.39877L14.5413 11.5858C14.4318 11.6953 14.2878 11.75 14.1446 11.75Z"
      fill="#343434" />
  </g>
</svg>