<svg width="1em" height="1em" viewBox="0 0 36 36" fill="none" xmlns="http://www.w3.org/2000/svg">
  <path fill-rule="evenodd" clip-rule="evenodd"
    d="M18.0101 3C20.4367 3 22.8541 3.5986 25.002 4.73105C32.3148 8.58957 35.1272 17.6782 31.2713 24.9936C28.6412 29.9819 23.4631 33 17.9929 33C16.9243 33 15.8451 32.885 14.7711 32.6472C14.1661 32.5124 13.7844 31.9125 13.9178 31.3073C14.0512 30.7021 14.6496 30.3228 15.2585 30.4536C20.8449 31.6958 26.6122 29.0146 29.2845 23.9457C32.5632 17.7271 30.1722 9.99819 23.9545 6.71845C22.1289 5.75514 20.0735 5.2464 18.0088 5.2464H17.9943C10.9654 5.2464 5.24565 10.9668 5.24565 17.998C5.243 20.0462 5.74233 22.0851 6.68946 23.8968L6.97743 24.4597C7.33013 25.1204 7.40806 25.941 7.17954 26.6837C6.86383 27.5161 6.60096 28.3262 6.38432 29.1322C7.22709 28.8785 8.25612 28.5046 8.99983 28.2337L9.30497 28.124C9.88223 27.9086 10.5308 28.2138 10.7422 28.7979C10.9535 29.3807 10.651 30.0255 10.0685 30.2356L9.7673 30.3453L9.71607 30.3638C8.6087 30.7651 7.11761 31.3055 6.10559 31.5319C6.01841 31.5504 5.92462 31.5623 5.83876 31.5597C5.14922 31.5597 4.72915 31.2808 4.49798 31.0456C4.14264 30.6849 3.97356 30.1788 3.99337 29.5419C3.99602 29.4692 4.00526 29.3939 4.02243 29.3212C4.28927 28.1848 4.63668 27.051 5.05675 25.9529C5.08713 25.8459 5.06864 25.6516 4.98277 25.4891L4.69348 24.9275C3.5852 22.8053 2.99737 20.4043 3.00001 17.9967C3.00001 9.7273 9.72635 3 17.9929 3H18.0101ZM9.60522 17.9987C9.60522 17.0142 10.4044 16.2148 11.3885 16.2148C12.3726 16.2148 13.1718 17.0142 13.1718 17.9987C13.1718 18.9818 12.3726 19.7813 11.3885 19.7813C10.4044 19.7813 9.60522 18.9818 9.60522 17.9987ZM19.7768 17.9981C19.7768 17.015 18.9776 16.2142 17.9935 16.2142C17.0094 16.2142 16.2102 17.015 16.2102 17.9981C16.2102 18.9813 17.0094 19.7821 17.9935 19.7821C18.9776 19.7821 19.7768 18.9813 19.7768 17.9981ZM24.5983 16.2142C25.5824 16.2142 26.3816 17.015 26.3816 17.9981C26.3816 18.9813 25.5824 19.7821 24.5983 19.7821C23.6142 19.7821 22.815 18.9813 22.815 17.9981C22.815 17.015 23.6142 16.2142 24.5983 16.2142Z"
    fill="#808080" />
</svg>