<svg width="1em" height="1em" viewBox="0 0 36 36" fill="none" xmlns="http://www.w3.org/2000/svg">
  <path fill-rule="evenodd" clip-rule="evenodd"
    d="M29.2559 3.11594C30.2834 2.81703 31.3965 3.10537 32.151 3.87379C32.9055 4.6407 33.1845 5.75936 32.877 6.79499L31.0034 13.0978C30.8249 13.6972 30.2009 14.0368 29.6039 13.8587C29.0084 13.679 28.6694 13.048 28.8479 12.4502L30.7214 6.14583C30.8264 5.79257 30.6389 5.55404 30.5534 5.46799C30.4679 5.38043 30.2279 5.19022 29.8814 5.29136L5.74406 12.3098C5.36004 12.4215 5.27604 12.7431 5.25804 12.8759C5.24154 13.0088 5.23554 13.3409 5.57755 13.5522L10.6567 16.6772C11.1862 17.0033 11.3543 17.7008 11.0287 18.2352C10.8172 18.5824 10.4482 18.7757 10.0687 18.7757C9.8692 18.7757 9.66669 18.7228 9.48369 18.6096L4.40451 15.4831C3.39798 14.8641 2.86996 13.75 3.02746 12.574C3.18497 11.3964 3.9875 10.462 5.12004 10.1328L29.2559 3.11594ZM27.0422 18.5239C27.2223 17.923 27.8478 17.5818 28.4433 17.763C29.0388 17.9426 29.3778 18.5737 29.1993 19.173L25.7162 30.894C25.3787 32.0278 24.4457 32.8249 23.2801 32.9743C23.1496 32.9925 23.0206 33 22.8916 33C21.8746 33 20.9445 32.4777 20.403 31.5809L14.2528 21.3967C13.9843 20.9499 14.0518 20.3762 14.4193 20.0079L23.1511 11.2201C23.5906 10.7778 24.3017 10.7778 24.7412 11.2201C25.1807 11.6624 25.1807 12.3795 24.7412 12.8219L16.6349 20.9816L22.3261 30.4049C22.5331 30.7476 22.8586 30.7446 22.9936 30.7295C23.1256 30.7114 23.4451 30.6298 23.5591 30.2464L27.0422 18.5239Z"
    fill="#808080" />
</svg>