<svg width="1em" height="1em" viewBox="0 0 6 6" fill="none" xmlns="http://www.w3.org/2000/svg">
  <path
    d="M2.52875 4.92884C2.50458 4.9053 2.40125 4.81641 2.31625 4.7336C1.78167 4.24813 0.906667 2.98169 0.639583 2.31884C0.596667 2.21818 0.505833 1.96367 0.5 1.82769C0.5 1.69739 0.53 1.57318 0.590833 1.45466C0.675833 1.30691 0.809583 1.18838 0.9675 1.12344C1.07708 1.08163 1.405 1.01668 1.41083 1.01668C1.76958 0.951736 2.3525 0.916016 2.99667 0.916016C3.61042 0.916016 4.16958 0.951736 4.53375 1.00491C4.53958 1.011 4.94708 1.07594 5.08667 1.14698C5.34167 1.27728 5.5 1.53178 5.5 1.80415V1.82769C5.49375 2.00507 5.33542 2.3781 5.32958 2.3781C5.06208 3.00523 4.23 4.24245 3.67708 4.73969C3.67708 4.73969 3.535 4.87973 3.44625 4.94061C3.31875 5.0356 3.16083 5.08268 3.00292 5.08268C2.82667 5.08268 2.6625 5.02951 2.52875 4.92884Z"
    fill="#F3F3F3" />
</svg>