<svg width="1em" height="1em" viewBox="0 0 62 62" fill="none" xmlns="http://www.w3.org/2000/svg">
  <path fill-rule="evenodd" clip-rule="evenodd"
    d="M18.9954 31.5009L18.7547 41.0852C18.7444 41.5967 18.9384 42.0902 19.2955 42.457C19.6552 42.8264 20.1468 43.0331 20.6592 43.0331H30.1814C32.1609 43.0331 34.0239 42.2632 35.4264 40.8631L54.5019 21.8184C56.0079 20.3175 56.8333 18.3205 56.8333 16.197C56.8333 14.0786 56.0079 12.0791 54.5019 10.5782L51.4098 7.49105C48.3047 4.391 43.2564 4.391 40.1539 7.49105L21.1663 26.4478C19.8156 27.7964 19.0445 29.5918 18.9954 31.5009ZM22.8043 31.5965C22.8301 30.6691 23.2028 29.7933 23.8626 29.1371L38.591 14.43L43.4297 19.2661C43.8024 19.6355 44.2888 19.8215 44.7779 19.8215C45.2643 19.8215 45.7534 19.6355 46.126 19.2661C46.8686 18.5195 46.8686 17.3182 46.126 16.5742L41.2847 11.7407L42.8475 10.1803C44.4648 8.56573 47.0963 8.56573 48.7161 10.1803L51.8083 13.2701C53.4255 14.8847 53.4255 17.5119 51.8083 19.1291L32.7328 38.1738C32.0496 38.8558 31.144 39.2278 30.1814 39.2278H22.6154L22.8043 31.5965ZM7.07421 32.1439C8.12476 32.1439 8.97866 31.2914 8.97866 30.2425V20.5058C8.97866 13.5565 13.2197 9.06665 19.7843 9.06665H29.2833C30.3364 9.06665 31.1903 8.21672 31.1903 7.16529C31.1903 6.11644 30.3364 5.26393 29.2833 5.26393H19.7843C11.0409 5.26393 5.16717 11.3891 5.16717 20.5058V30.2425C5.16717 31.2914 6.02107 32.1439 7.07421 32.1439ZM54.9177 29.4748C53.8646 29.4748 53.0133 30.3247 53.0133 31.3761V41.5908C53.0133 48.5401 48.7697 53.0274 42.2025 53.0274H19.7838C13.2192 53.0274 8.98073 48.5401 8.98073 41.5908C8.98073 40.5419 8.12683 39.6894 7.07369 39.6894C6.02314 39.6894 5.16666 40.5419 5.16666 41.5908C5.16666 50.7075 11.0404 56.8327 19.7838 56.8327H42.2025C50.9484 56.8327 56.8222 50.7075 56.8222 41.5908V31.3761C56.8222 30.3247 55.9683 29.4748 54.9177 29.4748Z"
    fill="#808080" />
</svg>