<svg width="1em" height="1em" viewBox="0 0 62 62" fill="none" xmlns="http://www.w3.org/2000/svg">
<path fill-rule="evenodd" clip-rule="evenodd" d="M20.8174 18.9968C20.8174 13.417 25.3849 8.87817 31 8.87817C36.6151 8.87817 41.1826 13.417 41.1826 18.9968C41.1826 24.5741 36.6151 29.1129 31 29.1129C25.3849 29.1129 20.8174 24.5741 20.8174 18.9968ZM17.0818 18.9968C17.0818 26.6201 23.326 32.8251 31 32.8251C38.674 32.8251 44.9156 26.6201 44.9156 18.9968C44.9156 11.371 38.674 5.16602 31 5.16602C23.326 5.16602 17.0818 11.371 17.0818 18.9968ZM28.3588 56.7939C29.2245 56.8198 30.1057 56.8327 31 56.8327C39.8724 56.8327 51.6667 55.8485 51.6667 47.3521C51.6667 37.8172 36.1108 37.8172 31 37.8172C22.1276 37.8172 10.3333 38.8015 10.3333 47.3004C10.3333 49.8449 11.5239 53.2781 17.1962 55.1871C18.1763 55.523 19.2317 54.9934 19.5644 54.0247C19.8946 53.0559 19.3721 52.0046 18.3946 51.6765C14.5135 50.3693 14.0663 48.5533 14.0663 47.3004C14.0663 43.4694 19.7646 41.5268 31 41.5268C42.2354 41.5268 47.9337 43.4875 47.9337 47.3521C47.9337 51.1805 42.2354 53.1205 31 53.1205C30.1421 53.1205 29.2973 53.1102 28.4654 53.0869C27.4672 53.0947 26.5781 53.8645 26.5495 54.8875C26.5183 55.913 27.3294 56.7681 28.3588 56.7939Z" fill="#808080"/>
</svg>
