<svg width="1em" height="1em" viewBox="0 0 62 62" fill="none" xmlns="http://www.w3.org/2000/svg">
  <path fill-rule="evenodd" clip-rule="evenodd"
    d="M21.0229 5.16602H40.9546C49.2558 5.16602 54.2275 10.2072 54.25 18.6244V43.3743C54.25 51.7915 49.3008 56.8327 40.9771 56.8327H33.5983C32.652 56.7269 31.9358 55.9161 31.9358 54.9508C31.9358 53.9854 32.652 53.1747 33.5983 53.0689H40.9546C47.2986 53.0689 50.4931 49.8069 50.4931 43.3743V18.6244C50.4931 12.1918 47.2986 8.92981 40.9546 8.92981H21.0229C14.6789 8.92981 11.4619 12.1918 11.4619 18.6244V43.3743C11.4619 49.8069 14.6789 53.0689 21.0229 53.0689C21.9692 53.1747 22.6854 53.9854 22.6854 54.9508C22.6854 55.9161 21.9692 56.7269 21.0229 56.8327C12.7217 56.8327 7.75 51.7915 7.75 43.3743V18.6244C7.75 10.1844 12.7217 5.16602 21.0229 5.16602ZM21.6753 21.9548H28.7616C29.7079 21.849 30.4242 21.0383 30.4242 20.0729C30.4242 19.1076 29.7079 18.2968 28.7616 18.191H21.6753C20.729 18.2968 20.0127 19.1076 20.0127 20.0729C20.0127 21.0383 20.729 21.849 21.6753 21.9548ZM40.2798 32.8812H21.6753H21.6528C20.7065 32.7754 19.9902 31.9647 19.9902 30.9994C19.9902 30.034 20.7065 29.2233 21.6528 29.1175H40.2798C40.9916 29.0379 41.6856 29.3781 42.0662 29.9933C42.4467 30.6085 42.4467 31.3902 42.0662 32.0054C41.6856 32.6206 40.9916 32.9608 40.2798 32.8812ZM40.2798 43.8077H21.6753H21.6528C20.634 43.8077 19.8081 42.9702 19.8081 41.9372C19.8081 40.9041 20.634 40.0667 21.6528 40.0667H40.2798C41.2986 40.0667 42.1245 40.9041 42.1245 41.9372C42.1245 42.9702 41.2986 43.8077 40.2798 43.8077Z"
    fill="#808080" />
</svg>