<svg width="1em" viewBox="0 0 17 16" fill="none" xmlns="http://www.w3.org/2000/svg">
  <path fill-rule="evenodd" clip-rule="evenodd"
    d="M8.50195 11.0273C8.22595 11.0273 8.00195 10.8033 8.00195 10.5273V2.5C8.00195 2.224 8.22595 2 8.50195 2C8.77795 2 9.00195 2.224 9.00195 2.5V10.5273C9.00195 10.8033 8.77795 11.0273 8.50195 11.0273Z"
    fill="currentColor" />
  <path fill-rule="evenodd" clip-rule="evenodd"
    d="M8.50023 11.027C8.36756 11.027 8.23956 10.9744 8.14622 10.8797L6.20222 8.92836C6.00756 8.73236 6.00822 8.4157 6.20356 8.22103C6.39956 8.02636 6.71556 8.02636 6.91022 8.22236L8.50023 9.81903L10.0902 8.22236C10.2849 8.02636 10.6009 8.02636 10.7969 8.22103C10.9922 8.4157 10.9929 8.73236 10.7982 8.92836L8.85422 10.8797C8.76089 10.9744 8.63289 11.027 8.50023 11.027Z"
    fill="currentColor" />
  <mask id="mask0_982_2687" style="mask-type:alpha" maskUnits="userSpaceOnUse" x="1" y="5" width="15" height="10">
    <path fill-rule="evenodd" clip-rule="evenodd" d="M1.83398 5.15527H15.1672V14.3179H1.83398V5.15527Z" fill="white" />
  </mask>
  <g mask="url(#mask0_982_2687)">
    <path fill-rule="evenodd" clip-rule="evenodd"
      d="M12.2173 14.3179H4.79065C3.16065 14.3179 1.83398 12.9919 1.83398 11.3613V8.10461C1.83398 6.47794 3.15732 5.15527 4.78465 5.15527H5.41198C5.68798 5.15527 5.91198 5.37927 5.91198 5.65527C5.91198 5.93127 5.68798 6.15527 5.41198 6.15527H4.78465C3.70865 6.15527 2.83398 7.02927 2.83398 8.10461V11.3613C2.83398 12.4406 3.71132 13.3179 4.79065 13.3179H12.2173C13.292 13.3179 14.1673 12.4426 14.1673 11.3679V8.11194C14.1673 7.03261 13.2893 6.15527 12.2113 6.15527H11.59C11.314 6.15527 11.09 5.93127 11.09 5.65527C11.09 5.37927 11.314 5.15527 11.59 5.15527H12.2113C13.8413 5.15527 15.1673 6.48194 15.1673 8.11194V11.3679C15.1673 12.9946 13.8433 14.3179 12.2173 14.3179Z"
      fill="currentColor" />
  </g>
</svg>