<svg width="1em" height="0.999em" viewBox="0 0 17 16" fill="none" xmlns="http://www.w3.org/2000/svg">
  <path fill-rule="evenodd" clip-rule="evenodd"
    d="M8.50016 2.33398C5.3755 2.33398 2.8335 4.87598 2.8335 8.00065C2.8335 11.1253 5.3755 13.6673 8.50016 13.6673C11.6248 13.6673 14.1668 11.1253 14.1668 8.00065C14.1668 4.87598 11.6248 2.33398 8.50016 2.33398ZM8.50016 14.6673C4.82416 14.6673 1.8335 11.6767 1.8335 8.00065C1.8335 4.32465 4.82416 1.33398 8.50016 1.33398C12.1762 1.33398 15.1668 4.32465 15.1668 8.00065C15.1668 11.6767 12.1762 14.6673 8.50016 14.6673Z"
    fill="currentColor" />
  <path fill-rule="evenodd" clip-rule="evenodd"
    d="M10.7877 10.4618C10.7004 10.4618 10.6124 10.4391 10.5317 10.3918L8.01841 8.89247C7.86775 8.8018 7.77441 8.63847 7.77441 8.46247V5.23047C7.77441 4.95447 7.99841 4.73047 8.27441 4.73047C8.55108 4.73047 8.77441 4.95447 8.77441 5.23047V8.17847L11.0444 9.5318C11.2811 9.6738 11.3591 9.98047 11.2177 10.2178C11.1237 10.3745 10.9577 10.4618 10.7877 10.4618Z"
    fill="currentColor" />
</svg>