<svg width="1em" height="0.7em" viewBox="0 0 46 32" fill="none" xmlns="http://www.w3.org/2000/svg">
  <path
    d="M2.84541 5.69091C2.84541 4.18159 3.44499 2.73408 4.51224 1.66683C5.57949 0.599576 7.027 0 8.53632 0H36.9909C38.5002 0 39.9477 0.599576 41.0149 1.66683C42.0822 2.73408 42.6818 4.18159 42.6818 5.69091V19.9182C42.6818 21.4275 42.0822 22.875 41.0149 23.9423C39.9477 25.0095 38.5002 25.6091 36.9909 25.6091H8.53632C7.027 25.6091 5.57949 25.0095 4.51224 23.9423C3.44499 22.875 2.84541 21.4275 2.84541 19.9182V5.69091ZM8.53632 2.84545C7.78166 2.84545 7.05791 3.14524 6.52428 3.67887C5.99066 4.2125 5.69087 4.93625 5.69087 5.69091V19.9182C5.69087 20.6728 5.99066 21.3966 6.52428 21.9302C7.05791 22.4638 7.78166 22.7636 8.53632 22.7636H36.9909C37.7455 22.7636 38.4693 22.4638 39.0029 21.9302C39.5365 21.3966 39.8363 20.6728 39.8363 19.9182V5.69091C39.8363 4.93625 39.5365 4.2125 39.0029 3.67887C38.4693 3.14524 37.7455 2.84545 36.9909 2.84545H8.53632Z"
    fill="currentColor" />
  <path
    d="M0 29.8778C0 29.5005 0.149894 29.1386 0.416707 28.8718C0.68352 28.605 1.0454 28.4551 1.42273 28.4551H44.1045C44.4819 28.4551 44.8438 28.605 45.1106 28.8718C45.3774 29.1386 45.5273 29.5005 45.5273 29.8778C45.5273 30.2551 45.3774 30.617 45.1106 30.8838C44.8438 31.1506 44.4819 31.3005 44.1045 31.3005H1.42273C1.0454 31.3005 0.68352 31.1506 0.416707 30.8838C0.149894 30.617 0 30.2551 0 29.8778Z"
    fill="currentColor" />
</svg>