<svg width="1em" height="1em" viewBox="0 0 45 45" fill="none" xmlns="http://www.w3.org/2000/svg">
<path d="M18.75 24.3754C19.5552 25.4519 20.5825 26.3426 21.7623 26.9872C22.942 27.6317 24.2466 28.015 25.5875 28.1111C26.9284 28.2071 28.2742 28.0136 29.5338 27.5438C30.7933 27.0739 31.9371 26.3387 32.8875 25.3879L38.5125 19.7629C40.2202 17.9948 41.1652 15.6266 41.1438 13.1685C41.1225 10.7104 40.1365 8.35908 38.3983 6.62087C36.6601 4.88267 34.3087 3.89671 31.8506 3.87535C29.3925 3.85399 27.0244 4.79894 25.2563 6.50667L22.0312 9.71292" stroke="black" stroke-width="2" stroke-linecap="round" stroke-linejoin="round"/>
<path d="M26.2496 20.6248C25.4444 19.5483 24.4171 18.6576 23.2374 18.013C22.0576 17.3685 20.7531 16.9852 19.4122 16.8892C18.0713 16.7932 16.7254 16.9866 15.4659 17.4565C14.2063 17.9263 13.0626 18.6616 12.1121 19.6123L6.48714 25.2373C4.77941 27.0055 3.83446 29.3736 3.85582 31.8317C3.87718 34.2898 4.86314 36.6412 6.60134 38.3794C8.33954 40.1176 10.6909 41.1035 13.149 41.1249C15.6071 41.1462 17.9752 40.2013 19.7434 38.4936L22.9496 35.2873" stroke="black" stroke-width="2" stroke-linecap="round" stroke-linejoin="round"/>
</svg>
