<svg width="1em" height="1.231em" viewBox="0 0 13 16" fill="none" xmlns="http://www.w3.org/2000/svg">
  <path
    d="M6.40021 0C3.7841 0 1.64014 2.13756 1.64014 4.74647C1.64014 5.75733 1.96301 6.69683 2.5094 7.46898L5.81926 13.191C6.28277 13.7965 6.59092 13.6815 6.97636 13.159L10.6272 6.94627C10.7008 6.81283 10.7587 6.67075 10.8091 6.52564C11.0408 5.96108 11.1599 5.35671 11.1598 4.74647C11.16 2.13756 9.01664 0 6.40021 0ZM6.40021 2.22396C7.80914 2.22396 8.92944 3.3417 8.92944 4.74647C8.92944 6.15124 7.80914 7.2685 6.40021 7.2685C4.99143 7.2685 3.87066 6.1514 3.87066 4.74647C3.87066 3.3417 4.99143 2.22412 6.40021 2.22412V2.22396Z"
    fill="#808080" />
  <path
    d="M3.84089 11.0488C1.58077 11.3682 0 12.1322 0 13.2568C0 14.7716 2.64123 15.9996 6.39988 15.9996C10.1585 15.9996 12.7998 14.7716 12.7998 13.2568C12.7998 12.1322 11.2191 11.3682 8.95919 11.0488L8.64608 11.5819C10.3494 11.8183 11.5198 12.3149 11.5198 12.8912C11.5198 13.6992 9.22751 14.354 6.39988 14.354C3.57225 14.354 1.27998 13.6992 1.27998 12.8912C1.27982 12.3168 2.44251 11.8207 4.15112 11.5834C4.04792 11.4051 3.94409 11.2272 3.84073 11.0488H3.84089Z"
    fill="#808080" />
</svg>