<svg width="1em" height="1em" viewBox="0 0 16 16" fill="none" xmlns="http://www.w3.org/2000/svg">
  <path
    d="M4.00008 0H12.0001C12.3537 0 12.6928 0.140476 12.9429 0.390524C13.1929 0.640573 13.3334 0.979711 13.3334 1.33333V14.6667C13.3334 15.0203 13.1929 15.3594 12.9429 15.6095C12.6928 15.8595 12.3537 16 12.0001 16H4.00008C3.64646 16 3.30732 15.8595 3.05727 15.6095C2.80722 15.3594 2.66675 15.0203 2.66675 14.6667V1.33333C2.66675 0.979711 2.80722 0.640573 3.05727 0.390524C3.30732 0.140476 3.64646 0 4.00008 0V0ZM8.00008 4C8.53051 4 9.03922 4.21071 9.41429 4.58579C9.78937 4.96086 10.0001 5.46957 10.0001 6C10.0001 6.53043 9.78937 7.03914 9.41429 7.41421C9.03922 7.78929 8.53051 8 8.00008 8C7.46965 8 6.96094 7.78929 6.58587 7.41421C6.21079 7.03914 6.00008 6.53043 6.00008 6C6.00008 5.46957 6.21079 4.96086 6.58587 4.58579C6.96094 4.21071 7.46965 4 8.00008 4ZM7.33341 0.666667V2H8.66675V0.666667H7.33341ZM4.00008 2.66667V11C4.00008 10.08 5.79341 9.33333 8.00008 9.33333C10.2067 9.33333 12.0001 10.08 12.0001 11V2.66667H4.00008ZM8.66675 12H6.00008V13.3333H8.66675V14.6667L10.6667 12.6667L8.66675 10.6667V12Z"
    fill="#808080" />
</svg>