<svg width="1em" height="1em" viewBox="0 0 16 16" fill="none" xmlns="http://www.w3.org/2000/svg">
  <path
    d="M14.4489 12.3691C14.0203 11.987 13.6451 11.549 13.3333 11.0668C12.993 10.4013 12.789 9.6745 12.7333 8.92906V6.73351C12.7363 5.56267 12.3116 4.43105 11.539 3.55127C10.7664 2.67149 9.69918 2.10411 8.53778 1.95573V1.3824C8.53778 1.22503 8.47527 1.07412 8.364 0.962846C8.25273 0.851574 8.10181 0.789062 7.94445 0.789062C7.78709 0.789062 7.63617 0.851574 7.5249 0.962846C7.41363 1.07412 7.35112 1.22503 7.35112 1.3824V1.96462C6.20012 2.1237 5.14577 2.69451 4.38335 3.57133C3.62093 4.44815 3.20211 5.57157 3.20445 6.73351V8.92906C3.14878 9.6745 2.94479 10.4013 2.60445 11.0668C2.29817 11.5479 1.92898 11.9858 1.50667 12.3691C1.45926 12.4107 1.42127 12.462 1.39521 12.5195C1.36916 12.5769 1.35564 12.6393 1.35556 12.7024V13.3068C1.35556 13.4247 1.40239 13.5378 1.48574 13.6211C1.56908 13.7045 1.68213 13.7513 1.8 13.7513H14.1556C14.2734 13.7513 14.3865 13.7045 14.4698 13.6211C14.5532 13.5378 14.6 13.4247 14.6 13.3068V12.7024C14.5999 12.6393 14.5864 12.5769 14.5604 12.5195C14.5343 12.462 14.4963 12.4107 14.4489 12.3691ZM2.28 12.8624C2.69352 12.4629 3.0576 12.0153 3.36445 11.5291C3.79317 10.7253 4.04331 9.83841 4.09778 8.92906V6.73351C4.08016 6.21263 4.16753 5.69354 4.35469 5.20714C4.54186 4.72073 4.82499 4.27697 5.18723 3.90226C5.54946 3.52756 5.9834 3.22958 6.4632 3.02607C6.94299 2.82256 7.45883 2.71769 7.98 2.71769C8.50118 2.71769 9.01702 2.82256 9.49681 3.02607C9.97661 3.22958 10.4105 3.52756 10.7728 3.90226C11.135 4.27697 11.4182 4.72073 11.6053 5.20714C11.7925 5.69354 11.8799 6.21263 11.8622 6.73351V8.92906C11.9167 9.83841 12.1668 10.7253 12.5956 11.5291C12.9024 12.0153 13.2665 12.4629 13.68 12.8624H2.28Z"
    fill="#EEEEEE" />
  <path
    d="M7.99998 15.236C8.27995 15.2295 8.54862 15.1243 8.75847 14.9388C8.96831 14.7534 9.10581 14.4997 9.14665 14.2227H6.80887C6.85086 14.5072 6.99479 14.7669 7.21389 14.9533C7.43299 15.1397 7.71235 15.2401 7.99998 15.236Z"
    fill="#EEEEEE" />
</svg>