<svg width="1em" height="1em" viewBox="0 0 24 24" fill="none" xmlns="http://www.w3.org/2000/svg">
  <path fill-rule="evenodd" clip-rule="evenodd"
    d="M6.63827 18.2505C10.6312 17.6672 13.3804 17.7174 17.3786 18.271C17.6681 18.3129 17.9327 18.4583 18.1235 18.6801C18.3142 18.9019 18.4183 19.1853 18.4164 19.4779C18.4164 19.7579 18.3201 20.0297 18.1463 20.242C17.8433 20.6122 17.5329 20.9763 17.2153 21.334H18.7559C18.8527 21.2185 18.9501 21.1007 19.0487 20.9811C19.3947 20.5568 19.5835 20.026 19.583 19.4785C19.583 18.2972 18.7208 17.2793 17.5384 17.116C13.4458 16.5495 10.5851 16.4953 6.46968 17.0967C5.27502 17.2711 4.41635 18.3048 4.41635 19.4942C4.41635 20.0221 4.58843 20.5442 4.91452 20.9671C5.01077 21.092 5.10585 21.2145 5.20035 21.3346H6.7036C6.4081 20.9808 6.11987 20.621 5.8391 20.2555C5.67225 20.0366 5.58223 19.7688 5.58302 19.4936C5.58302 18.8654 6.03452 18.3386 6.63827 18.2505Z"
    fill="#F5F5F5" />
  <path fill-rule="evenodd" clip-rule="evenodd"
    d="M11.9998 12.5846C12.4595 12.5846 12.9146 12.4941 13.3392 12.3182C13.7639 12.1423 14.1497 11.8845 14.4747 11.5595C14.7997 11.2345 15.0575 10.8487 15.2334 10.424C15.4093 9.99939 15.4998 9.54426 15.4998 9.08463C15.4998 8.62501 15.4093 8.16988 15.2334 7.74524C15.0575 7.3206 14.7997 6.93477 14.4747 6.60976C14.1497 6.28476 13.7639 6.02695 13.3392 5.85106C12.9146 5.67517 12.4595 5.58464 11.9998 5.58464C11.0716 5.58464 10.1813 5.95338 9.52497 6.60976C8.86859 7.26614 8.49984 8.15638 8.49984 9.08463C8.49984 10.0129 8.86859 10.9031 9.52497 11.5595C10.1813 12.2159 11.0716 12.5846 11.9998 12.5846ZM11.9998 13.7513C13.2375 13.7513 14.4245 13.2596 15.2997 12.3845C16.1748 11.5093 16.6665 10.3223 16.6665 9.08463C16.6665 7.84696 16.1748 6.65997 15.2997 5.7848C14.4245 4.90963 13.2375 4.41797 11.9998 4.41797C10.7622 4.41797 9.57518 4.90963 8.70001 5.7848C7.82484 6.65997 7.33318 7.84696 7.33318 9.08463C7.33318 10.3223 7.82484 11.5093 8.70001 12.3845C9.57518 13.2596 10.7622 13.7513 11.9998 13.7513Z"
    fill="#F5F5F5" />
  <path fill-rule="evenodd" clip-rule="evenodd"
    d="M11.9998 22.5007C17.7988 22.5007 22.4998 17.7996 22.4998 12.0007C22.4998 6.20173 17.7988 1.50065 11.9998 1.50065C6.20093 1.50065 1.49984 6.20173 1.49984 12.0007C1.49984 17.7996 6.20093 22.5007 11.9998 22.5007ZM11.9998 23.6673C18.4433 23.6673 23.6665 18.4442 23.6665 12.0007C23.6665 5.55715 18.4433 0.333984 11.9998 0.333984C5.55634 0.333984 0.333176 5.55715 0.333176 12.0007C0.333176 18.4442 5.55634 23.6673 11.9998 23.6673Z"
    fill="#F5F5F5" />
</svg>