<svg width="54" height="60" viewBox="0 0 54 60" fill="none" xmlns="http://www.w3.org/2000/svg">
<path d="M53.2355 15.1248C53.1871 14.6347 53.015 14.1648 52.7355 13.7593C52.4559 13.3537 52.078 13.0258 51.6372 12.8061L28.3039 1.13939C27.8987 0.936625 27.4518 0.831055 26.9987 0.831055C26.5455 0.831055 26.0987 0.936625 25.6935 1.13939L2.36012 12.8061C1.9205 13.027 1.54378 13.3554 1.26488 13.7607C0.985988 14.1661 0.813944 14.6353 0.764701 15.1248C0.732618 15.4369 -2.03822 46.5286 25.816 58.9156C26.1881 59.0836 26.5918 59.1705 27.0001 59.1705C27.4084 59.1705 27.8121 59.0836 28.1843 58.9156C56.0385 46.5286 53.2676 15.4398 53.2355 15.1248ZM27.0001 53.0327V29.9998H8.07095C6.93846 25.8533 6.40418 21.5662 6.48428 17.2686L27.0001 7.01064V29.9998H45.8418C43.628 37.9915 38.556 47.4386 27.0001 53.0327Z" fill="#6B4EFF" fill-opacity="0.3"/>
</svg>
