<svg width="1em" height="0.882em" viewBox="0 0 17 15" fill="none" xmlns="http://www.w3.org/2000/svg">
  <path
    d="M10.4725 1.00889V13.4921C10.4725 14.3605 9.4462 14.8213 8.79691 14.2445L5.17825 11.0271C5.06778 10.9286 4.92503 10.8742 4.77708 10.874H1.81255C1.33197 10.874 0.871064 10.6831 0.531168 10.3434C0.191272 10.0037 0.00021359 9.54283 0 9.06225V5.43957C0 4.95885 0.190964 4.49782 0.530883 4.15791C0.870803 3.81799 1.33183 3.62702 1.81255 3.62702H4.77708C4.92503 3.62684 5.06778 3.57238 5.17825 3.47396L8.7961 0.25729C9.4462 -0.321115 10.4725 0.13887 10.4725 1.00889ZM13.6884 2.33568C13.7522 2.2885 13.8246 2.25434 13.9016 2.23516C13.9786 2.21598 14.0586 2.21215 14.1371 2.2239C14.2156 2.23564 14.291 2.26273 14.359 2.30361C14.427 2.34449 14.4862 2.39836 14.5334 2.46216C15.5607 3.84766 16.1141 5.52734 16.1116 7.25212C16.1138 8.97699 15.5601 10.6567 14.5326 12.0421C14.4353 12.1651 14.2939 12.2455 14.1384 12.2662C13.9829 12.2868 13.8254 12.2462 13.6993 12.1528C13.5732 12.0595 13.4884 11.9208 13.4627 11.766C13.4371 11.6112 13.4726 11.4525 13.5619 11.3235C14.4353 10.146 14.9057 8.7182 14.9032 7.25212C14.9057 5.78604 14.4353 4.35824 13.5619 3.18073C13.5147 3.11694 13.4806 3.04448 13.4614 2.96749C13.4422 2.8905 13.4384 2.81048 13.4501 2.73201C13.4619 2.65354 13.4889 2.57815 13.5298 2.51015C13.5707 2.44215 13.6246 2.38286 13.6884 2.33568ZM12.1989 4.32787C12.2687 4.29007 12.3453 4.26639 12.4242 4.2582C12.5032 4.25001 12.583 4.25746 12.6591 4.28013C12.7352 4.30279 12.806 4.34024 12.8677 4.39031C12.9293 4.44039 12.9804 4.50212 13.0181 4.57196C13.4499 5.36949 13.6948 6.28382 13.6948 7.25293C13.6962 8.189 13.4636 9.11058 13.0181 9.93389C12.9804 10.0037 12.9292 10.0654 12.8676 10.1155C12.806 10.1655 12.7351 10.2029 12.6591 10.2256C12.583 10.2483 12.5032 10.2557 12.4242 10.2476C12.3453 10.2394 12.2687 10.2157 12.1989 10.178C12.129 10.1402 12.0673 10.0891 12.0173 10.0275C11.9672 9.96584 11.9298 9.89497 11.9071 9.8189C11.8845 9.74282 11.877 9.66302 11.8852 9.58406C11.8934 9.50511 11.917 9.42853 11.9548 9.35871C12.2931 8.73277 12.4865 8.01661 12.4865 7.25293C12.4865 6.48924 12.2931 5.77308 11.9548 5.14715C11.917 5.07733 11.8933 5.00075 11.8851 4.92179C11.8769 4.84282 11.8844 4.76301 11.907 4.68692C11.9297 4.61084 11.9671 4.53996 12.0172 4.47835C12.0673 4.41675 12.129 4.36561 12.1989 4.32787Z"
    fill="#808080" />
</svg>