<svg width="1em" height="1.074em" viewBox="0 0 27 29" fill="none" xmlns="http://www.w3.org/2000/svg">
  <path
    d="M23.4 21.75H3.6C2.60625 21.75 1.75781 21.396 1.05469 20.688C0.351562 19.98 0 19.1257 0 18.125V10.875C0 9.87435 0.351562 9.02002 1.05469 8.31201C1.75781 7.604 2.60625 7.25 3.6 7.25H23.4C24.3937 7.25 25.2422 7.604 25.9453 8.31201C26.6484 9.02002 27 9.87435 27 10.875V18.125C27 19.1257 26.6484 19.98 25.9453 20.688C25.2422 21.396 24.3937 21.75 23.4 21.75ZM7.2 11.7812C7.2 11.5358 7.11094 11.3234 6.93281 11.144C6.75469 10.9647 6.54375 10.875 6.3 10.875H2.7C2.45625 10.875 2.24531 10.9647 2.06719 11.144C1.88906 11.3234 1.8 11.5358 1.8 11.7812V17.2188C1.8 17.4642 1.88906 17.6766 2.06719 17.856C2.24531 18.0353 2.45625 18.125 2.7 18.125C2.94375 18.125 3.15469 18.0353 3.33281 17.856C3.51094 17.6766 3.6 17.4642 3.6 17.2188V16.3125H5.4V17.2188C5.4 17.4642 5.48906 17.6766 5.66719 17.856C5.84531 18.0353 6.05625 18.125 6.3 18.125C6.54375 18.125 6.75469 18.0353 6.93281 17.856C7.11094 17.6766 7.2 17.4642 7.2 17.2188V16.3125H6.3C6.05625 16.3125 5.84531 16.2228 5.66719 16.0435C5.48906 15.8641 5.4 15.6517 5.4 15.4062C5.4 15.1608 5.48906 14.9484 5.66719 14.769C5.84531 14.5897 6.05625 14.5 6.3 14.5H7.2V11.7812ZM14.4 11.7812C14.4 11.5358 14.3109 11.3234 14.1328 11.144C13.9547 10.9647 13.7437 10.875 13.5 10.875H9.9C9.65625 10.875 9.44531 10.9647 9.26719 11.144C9.08906 11.3234 9 11.5358 9 11.7812V17.2188C9 17.4642 9.08906 17.6766 9.26719 17.856C9.44531 18.0353 9.65625 18.125 9.9 18.125C10.1438 18.125 10.3547 18.0353 10.5328 17.856C10.7109 17.6766 10.8 17.4642 10.8 17.2188V16.3125H12.6V17.2188C12.6 17.4642 12.6891 17.6766 12.8672 17.856C13.0453 18.0353 13.2562 18.125 13.5 18.125C13.7437 18.125 13.9547 18.0353 14.1328 17.856C14.3109 17.6766 14.4 17.4642 14.4 17.2188V11.7812ZM25.2 11.7812C25.2 11.5358 25.1109 11.3234 24.9328 11.144C24.7547 10.9647 24.5437 10.875 24.3 10.875H17.1C16.8562 10.875 16.6453 10.9647 16.4672 11.144C16.2891 11.3234 16.2 11.5358 16.2 11.7812V17.2188C16.2 17.4642 16.2891 17.6766 16.4672 17.856C16.6453 18.0353 16.8562 18.125 17.1 18.125C17.3438 18.125 17.5547 18.0353 17.7328 17.856C17.9109 17.6766 18 17.4642 18 17.2188V12.6875H19.8V17.2188C19.8 17.4642 19.8891 17.6766 20.0672 17.856C20.2453 18.0353 20.4562 18.125 20.7 18.125C20.9438 18.125 21.1547 18.0353 21.3328 17.856C21.5109 17.6766 21.6 17.4642 21.6 17.2188V12.6875H23.4V17.2188C23.4 17.4642 23.4891 17.6766 23.6672 17.856C23.8453 18.0353 24.0562 18.125 24.3 18.125C24.5437 18.125 24.7547 18.0353 24.9328 17.856C25.1109 17.6766 25.2 17.4642 25.2 17.2188V11.7812ZM10.8 12.6875H12.6V14.5H10.8V12.6875ZM3.6 12.6875H5.4V14.5H3.6V12.6875ZM21.6 0.90625C21.6 0.660807 21.6891 0.448405 21.8672 0.269043C22.0453 0.089681 22.2562 0 22.5 0C22.7437 0 22.9547 0.089681 23.1328 0.269043C23.3109 0.448405 23.4 0.660807 23.4 0.90625V5.4375H21.6V0.90625ZM18 0.90625C18 0.660807 18.0891 0.448405 18.2672 0.269043C18.4453 0.089681 18.6562 0 18.9 0C19.1437 0 19.3547 0.089681 19.5328 0.269043C19.7109 0.448405 19.8 0.660807 19.8 0.90625V5.4375H18V0.90625ZM14.4 0.90625C14.4 0.660807 14.4891 0.448405 14.6672 0.269043C14.8453 0.089681 15.0562 0 15.3 0C15.5437 0 15.7547 0.089681 15.9328 0.269043C16.1109 0.448405 16.2 0.660807 16.2 0.90625V5.4375H14.4V0.90625ZM10.8 0.90625C10.8 0.660807 10.8891 0.448405 11.0672 0.269043C11.2453 0.089681 11.4562 0 11.7 0C11.9437 0 12.1547 0.089681 12.3328 0.269043C12.5109 0.448405 12.6 0.660807 12.6 0.90625V5.4375H10.8V0.90625ZM7.2 0.90625C7.2 0.660807 7.28906 0.448405 7.46719 0.269043C7.64531 0.089681 7.85625 0 8.1 0C8.34375 0 8.55469 0.089681 8.73281 0.269043C8.91094 0.448405 9 0.660807 9 0.90625V5.4375H7.2V0.90625ZM3.6 0.90625C3.6 0.660807 3.68906 0.448405 3.86719 0.269043C4.04531 0.089681 4.25625 0 4.5 0C4.74375 0 4.95469 0.089681 5.13281 0.269043C5.31094 0.448405 5.4 0.660807 5.4 0.90625V5.4375H3.6V0.90625ZM5.4 28.0938C5.4 28.3392 5.31094 28.5516 5.13281 28.731C4.95469 28.9103 4.74375 29 4.5 29C4.25625 29 4.04531 28.9103 3.86719 28.731C3.68906 28.5516 3.6 28.3392 3.6 28.0938V23.5625H5.4V28.0938ZM9 28.0938C9 28.3392 8.91094 28.5516 8.73281 28.731C8.55469 28.9103 8.34375 29 8.1 29C7.85625 29 7.64531 28.9103 7.46719 28.731C7.28906 28.5516 7.2 28.3392 7.2 28.0938V23.5625H9V28.0938ZM12.6 28.0938C12.6 28.3392 12.5109 28.5516 12.3328 28.731C12.1547 28.9103 11.9437 29 11.7 29C11.4562 29 11.2453 28.9103 11.0672 28.731C10.8891 28.5516 10.8 28.3392 10.8 28.0938V23.5625H12.6V28.0938ZM16.2 28.0938C16.2 28.3392 16.1109 28.5516 15.9328 28.731C15.7547 28.9103 15.5437 29 15.3 29C15.0562 29 14.8453 28.9103 14.6672 28.731C14.4891 28.5516 14.4 28.3392 14.4 28.0938V23.5625H16.2V28.0938ZM19.8 28.0938C19.8 28.3392 19.7109 28.5516 19.5328 28.731C19.3547 28.9103 19.1437 29 18.9 29C18.6562 29 18.4453 28.9103 18.2672 28.731C18.0891 28.5516 18 28.3392 18 28.0938V23.5625H19.8V28.0938ZM23.4 28.0938C23.4 28.3392 23.3109 28.5516 23.1328 28.731C22.9547 28.9103 22.7437 29 22.5 29C22.2562 29 22.0453 28.9103 21.8672 28.731C21.6891 28.5516 21.6 28.3392 21.6 28.0938V23.5625H23.4V28.0938Z"
    fill="#808080" />
</svg>