<svg width="1em" height="1.417em" viewBox="0 0 12 17" fill="none" xmlns="http://www.w3.org/2000/svg">
  <path
    d="M11 17H1C0.71875 17 0.481771 16.8976 0.289062 16.6929C0.0963542 16.4881 0 16.2363 0 15.9375V1.0625C0 0.77474 0.0963542 0.525716 0.289062 0.31543C0.481771 0.105143 0.71875 0 1 0H11C11.2812 0 11.5182 0.105143 11.7109 0.31543C11.9036 0.525716 12 0.77474 12 1.0625V15.9375C12 16.2363 11.9036 16.4881 11.7109 16.6929C11.5182 16.8976 11.2812 17 11 17ZM11 2.125H1V14.875H11V2.125ZM4 4.25L9 11.6875L10 10.625V13.8125H7L8 12.75L3 5.3125L2 6.375V3.1875H5L4 4.25Z"
    fill="#808080" />
</svg>