<svg width="1em" height="1em" viewBox="0 0 16 16" fill="none" xmlns="http://www.w3.org/2000/svg">
  <path
    d="M14 16H8C7.6875 16 7.11198 15.6898 6.27344 15.0694C5.4349 14.449 4.84375 13.9251 4.5 13.4976C4.13542 13.0283 3.67708 12.6061 3.125 12.2307C2.57292 11.8553 2.07812 11.579 1.64062 11.4018C1.20312 11.2245 0.822917 11.0551 0.5 10.8935C0.177083 10.7318 0.015625 10.5989 0.015625 10.4946C0.015625 10.0254 0.164062 9.65787 0.460938 9.39198C0.757812 9.1261 1.10938 8.99316 1.51562 8.99316C1.72396 8.99316 1.9974 9.04529 2.33594 9.14956C2.67448 9.25383 2.98177 9.3607 3.25781 9.47019C3.53385 9.57967 3.94792 9.75432 4.5 9.99413C4.58333 10.0254 4.80469 10.2001 5.16406 10.5181C5.52344 10.8361 5.80208 10.9951 6 10.9951C6.22917 10.9951 6.58333 10.8804 7.0625 10.651C7.54167 10.4216 7.98438 10.1427 8.39062 9.81427C8.79688 9.48583 9 9.21212 9 8.99316V7.99218C9 7.08504 8.94792 6.26132 8.84375 5.52102C8.73958 4.78071 8.625 4.22548 8.5 3.85533C8.375 3.48517 8.26042 3.13327 8.15625 2.79961C8.05208 2.46595 8 2.20007 8 2.00196V1.34506L8.00781 0.977517L8.05469 0.602151L8.14062 0.297165L8.28125 0.0703812L8.5 0C9.05208 0 9.45833 0.216357 9.71875 0.649071C9.97917 1.08179 10.349 2.02281 10.8281 3.47214C10.901 3.70153 10.9583 3.87357 11 3.98827C11.1458 4.4262 11.3021 4.81199 11.4688 5.14565C11.6354 5.47931 11.7656 5.70349 11.8594 5.81818L12 5.99022C12.1562 6.07364 12.3542 6.17791 12.5938 6.30303C12.8333 6.42815 13.2214 6.66797 13.7578 7.02248C14.2943 7.377 14.7083 7.70023 15 7.99218C15.1979 8.19029 15.4141 8.58651 15.6484 9.18084C15.8828 9.77517 16 10.2131 16 10.4946V12.4966C16 12.9762 15.9635 13.4089 15.8906 13.7947C15.8177 14.1805 15.7214 14.4907 15.6016 14.7253C15.4818 14.9599 15.3516 15.1659 15.2109 15.3431C15.0703 15.5204 14.9297 15.6481 14.7891 15.7263C14.6484 15.8045 14.5182 15.8671 14.3984 15.914C14.2786 15.9609 14.1823 15.9896 14.1094 16H14ZM7 3.48778C7 3.63376 6.95312 3.75367 6.85938 3.84751C6.76562 3.94135 6.64583 3.98827 6.5 3.98827H4.5C4.36458 3.98827 4.2474 3.94135 4.14844 3.84751C4.04948 3.75367 4 3.63376 4 3.48778V1.50147C4 1.35549 4.04948 1.23558 4.14844 1.14174C4.2474 1.0479 4.36458 1.00098 4.5 1.00098C4.57292 1.00098 4.68229 1.07397 4.82812 1.21994C4.97396 1.36592 5.10417 1.50668 5.21875 1.64223L5.375 1.86119L6.10938 1.14174C6.21354 1.03747 6.33594 0.985337 6.47656 0.985337C6.61719 0.985337 6.73958 1.03747 6.84375 1.14174C6.94792 1.24601 7 1.36852 7 1.50929C7 1.65005 6.94792 1.77256 6.84375 1.87683L6.10938 2.61193C6.10938 2.6015 6.1849 2.65624 6.33594 2.77615C6.48698 2.89606 6.63542 3.029 6.78125 3.17498C6.92708 3.32095 7 3.42522 7 3.48778ZM2.51562 7.99218C2.44271 7.99218 2.33073 7.91919 2.17969 7.77322C2.02865 7.62724 1.90104 7.48126 1.79688 7.33529L1.625 7.10068L0.890625 7.83578C0.786458 7.94005 0.664062 7.99218 0.523438 7.99218C0.382812 7.99218 0.260417 7.94005 0.15625 7.83578C0.0520833 7.73151 0 7.60899 0 7.46823C0 7.32747 0.0520833 7.20495 0.15625 7.10068L0.875 6.36559C0.8125 6.32388 0.734375 6.26654 0.640625 6.19355C0.546875 6.12056 0.419271 6.00326 0.257812 5.84164C0.0963542 5.68003 0.015625 5.56272 0.015625 5.48974C0.015625 5.35419 0.0625 5.23689 0.15625 5.13783C0.25 5.03877 0.369792 4.98925 0.515625 4.98925H2.5C2.64583 4.98925 2.76562 5.03877 2.85938 5.13783C2.95312 5.23689 3 5.35419 3 5.48974V7.49169C3 7.63767 2.95312 7.75758 2.85938 7.85142C2.76562 7.94526 2.65104 7.99218 2.51562 7.99218Z"
    fill="#808080" />
</svg>